<?xml version="1.0" encoding="utf-8"?>
<!-- Generator: Adobe Illustrator 14.0.0, SVG Export Plug-In . SVG Version: 6.00 Build 43363)  -->
<!DOCTYPE svg PUBLIC "-//W3C//DTD SVG 1.0//EN" "http://www.w3.org/TR/2001/REC-SVG-20010904/DTD/svg10.dtd">
<svg version="1.0" id="Layer_1" xmlns="http://www.w3.org/2000/svg" xmlns:xlink="http://www.w3.org/1999/xlink" x="0px" y="0px"
	 width="1200px" height="230px" viewBox="0 0 1200 230" enable-background="new 0 0 1200 230" xml:space="preserve">
<g>
	<path fill="#DA2128" d="M1200,219.347V0.001L0,0v219.346c0,3.068,5.332,2.684,15.291,1.655c4.958-0.505,11.084-0.872,18.293-1.655
		c3.623-0.471,7.458-1.465,11.582,0.365c4.126,2.93,8.5-1.708,13.125-0.262c4.626,0.227,9.501,3.906,14.626,0.697
		c2.541-1.43,5.125-2.127,7.79-1.883c2.667-0.819,5.418,2.878,8.168,3.784c2.792-1.204,5.624-0.315,8.498-0.245
		c2.918-0.506,5.835-0.661,8.834-1.533c3.001,0.121,6.043-2.354,9.125-0.559c3.125,0.574,6.25-0.453,9.458-0.365
		c2.417,1.255,4.834,6.66,7.292,4.498c2.46,0.695,4.918-2.251,7.459-1.082c2.5-0.437,5.041,1.342,7.584,0.783
		c2.582-3.852,5.166-2.438,7.791-0.47c2.626,2.3,5.25,2.702,7.918,1.378c2.665-3.189,5.373,0.436,8.083-2.947
		c2.708,0.105,5.458-3.242,8.207-3.137c2.792-0.297,5.585,1.395,8.376,0.818c2.832,2.737,5.666,0.036,8.5,1.221
		c2.875,2.301,5.75,1.517,8.665-1.15c2.877-1.69,5.792-1.778,8.751,0.141c2.957,2.597,5.916,0.661,8.917-1.588
		c3.001,3.73,5.999,2.196,9.041,0.436c3.042,2.633,6.083-4.41,9.167-1.132c3.042-1.047,6.125,2.109,9.25,1.446
		c3.125,2.283,6.25,2.04,9.417,0.785c3.125,2.979,6.291,1.761,9.499,1.672c3.168,1.151,6.377-1.794,9.625-0.26
		c3.209-2.25,6.46,2.299,9.709-0.244c3.25-0.385,6.541-2.006,9.833-0.75c3.292-2.284,6.583,0.191,9.916-0.489
		c3.335,0.63,6.667-0.505,10.002-1.324c3.375,1.1,6.748-1.83,10.124-1.308c3.375-0.244,6.75-2.84,10.166,0.279
		c3.418,2.195,6.834-1.202,10.291-0.626c3.458,3.554,6.876-1.69,10.375,0.14c3.459,1.322,6.918,2.578,10.417,1.603
		c3.499-2.614,6.999-2.337,10.498-2.492c3.544,0.993,7.048,1.985,10.587,1.149c3.541-0.958,7.08-4.27,10.666-0.732
		c3.543,0.697,7.125,0.4,10.709,0.82c3.585-2.998,7.166,3.189,10.791,2.563c1.416,4.27,2.877,6.555,4.293,2.702
		c1.457-4.464,2.914-0.595,4.33,1.343c1.46,0.627,2.921-0.977,4.377,0.538c1.416,1.446,2.873-0.557,4.334-2.665
		c2.918,0.416,5.791-3.993,8.708,0.068c2.917,0.279,5.831,2.25,8.793,0.768c2.913-0.61,5.831-2.336,8.749-2.317
		c2.961,1.603,5.875,1.167,8.829,2.317c2.921-2.127,5.876-0.646,8.838-0.471c2.954-5.439,5.876-1.464,8.829-0.123
		c2.963,1.639,5.917,0.158,8.92-1.289c1.457,1.482,2.963-2.424,4.419-1.689c1.497-1.187,2.995-1.656,4.46,2.037
		c1.497-0.191,2.953,1.955,4.451,1.866c1.506,1.48,2.963,1.045,4.459-1.796c1.506,4.566,3.004,1.762,4.461,2.039
		c1.496,1.621,3.002,1.482,4.5-2.422c2.962-1.064,5.957-1.761,8.919,1.463c2.995-4.916,5.997,1.621,9.001-2.998
		c2.953-0.436,5.957-1.428,8.951-1.395c3.004,1.676,6.006-1.898,9.001-0.121c2.962,3.016,5.966-0.105,8.96-2.09
		c3.003,1.62,5.998,2.682,9,1.863c3.004,0.47,5.998-0.891,9.002-1.656c3.002-0.941,5.997-0.453,9,4.027
		c3.003,0.035,5.998,3.641,9,0.906c2.996,1.185,5.998,3.33,9.002,1.48c2.994,4.08,5.997-5.908,9-0.715
		c2.994-2.09,5.998-0.627,9,1.308c2.955-2.37,5.957-2.16,8.953-1.169c3.002,0.508,6.006,3.593,8.959,0.821
		c3.004,5.509,5.998,3.835,8.961,0.802c3.002-3.801,5.997-7.967,8.959-1.273c2.995-3.503,5.957-2.318,8.961-0.697
		c2.953,2.982,5.916-0.592,8.91,0.906c2.963,1.676,5.916-0.871,8.879,2.615c2.954,1.308,5.957-4.393,8.92-2.092
		c2.953,1.413,5.867,1.413,8.829-0.471c2.954-3.676,5.917-2.057,8.829-0.714c2.963,0.436,5.877-0.54,8.838-0.629
		c2.914,1.883,5.836-2.161,8.789-1.062c2.922,0.207,5.836,0.296,8.749-0.14c2.921-2.284,5.794,1.464,8.708-0.821
		c2.922-3.572,5.794-1.219,8.715,0.072c2.873,1.811,5.746,4.305,8.619,0.871c3.629,0.819,7.21,0.696,10.791-0.943
		c3.588-0.645,7.129,4.447,10.709,2.075c3.541,0.506,7.088-2.458,10.629-1.22c3.539,1.674,7.08,7.184,10.579,2.195
		c3.548-2.02,7.048-2.282,10.547-0.086c3.458-0.07,6.958,1.098,10.417-0.018c3.459-0.992,6.917,2.058,10.375,0.994
		c3.41,2.109,6.869-2.737,10.287-3.12c3.377,3.47,6.795,6.136,10.172,2.824c3.369-0.14,6.747-3.138,10.125-3.627
		c3.328-0.226,6.664,0.036,9.992,0.542c3.338-0.523,6.633-1.047,9.921-1.447c3.296-0.104,6.583-0.593,9.831,0.211
		c3.255,0.469,6.502,0.609,9.709-0.229c3.254,0.174,6.42-0.262,9.627,0c3.206-0.47,6.371-0.522,9.496,1.849
		c3.174,0.889,6.299-0.28,9.424-0.454c3.076,0.507,6.161-3.225,9.246-1.5c3.084,0.089,6.127-1.01,9.171,0.838
		c3.036-1.811,6.038,1.271,9.042-0.123c2.994,0,5.957,7.078,8.91,0.332c2.922,2.615,5.876-1.517,8.748,0.871
		c2.922,0.4,5.795,4.254,8.668,1.587c2.84-0.489,5.672,3.052,8.504-2.039c2.791,0.104,5.582,1.098,8.374,0.121
		c2.751-2.72,5.501,0.42,8.212,0.87c2.701-2.542,5.411-2.352,8.08-0.015c2.67,2.161,5.29-0.263,7.918-0.21
		c2.621-1.709,5.209,0.68,7.789,1.098c2.547,0.035,5.086,2.074,7.584-1.587c2.498-4.34,4.997-1.69,7.463-1.132
		c2.457,0.748,4.875,1.15,7.291,1.343c3.207-1.64,6.332,1.638,9.416-0.332c3.125,0.539,6.16-0.558,9.164,0.854
		c3.002-0.768,5.916,0.959,8.83-0.784c2.881,0.384,5.713,0.384,8.504,2.824c2.75,1.62,5.501,1.673,8.162,1.097
		c2.67-1.48,5.258-0.574,7.837-1.568c2.539,0.192,4.997-0.695,7.462-0.42c2.41,0.141,4.785,0.873,7.121,3.14
		c4.623-5.072,9.001,3.714,13.127-1.011c1.375-1.447,2.71-2.18,3.996-2.564c0.667-0.26,1.334-0.277,1.961-0.296
		c0.668-0.155,1.294-0.817,1.92-0.19c0.619,0.07,1.246,0.19,1.873,0.104c0.626-1.48,1.203-1.517,1.83-0.853
		c1.042,0.696,2.125,0.925,3.125,1.567c1.042-0.643,2.043,0.576,3.044-0.889c1.001,2.075,1.962,2.091,2.872,0.837
		c0.92,0,1.84-2.929,2.711-0.261c0.92,0.992,1.75,1.028,2.58,0.121c0.838,0.262,1.668-0.208,2.416,0.35
		c0.798,0.818,1.547-0.68,2.295,0.506c0.709-0.191,1.416-0.471,2.084-0.157c0.667-0.331,1.334,1.429,1.961,0.278
		c0.619-0.121,1.205,0.593,1.791-0.034c0.959-1.604,1.83-1.849,2.619-0.332c0.799-0.751,1.506-0.349,2.174,0.332
		c1.285,0.35,2.246-0.332,2.913-0.698C1199.666,220.582,1200,220.061,1200,219.347z"/>
	<g>
		<path fill="#FFFFFF" d="M0,197.066c0-0.646,0.334-1.121,1.001-1.471c0.667-0.332,1.628-0.95,2.913-0.633
			c0.668,0.617,1.376,0.982,2.173,0.301c0.79,1.377,1.66,1.156,2.621-0.301c0.586-0.569,1.172,0.078,1.79-0.031
			c0.627-1.045,1.294,0.553,1.961,0.254c0.668,0.283,1.376,0.029,2.084-0.145c0.748,1.077,1.497-0.282,2.295,0.461
			c0.748,0.505,1.578,0.078,2.417,0.316c0.83-0.824,1.66-0.791,2.579,0.109c0.871,2.422,1.791-0.236,2.71-0.236
			c0.912-1.139,1.872-1.125,2.873,0.759c1.001-1.328,2.002-0.222,3.044-0.807c1.001,0.585,2.083,0.791,3.125,1.423
			c0.626,0.604,1.204,0.57,1.831-0.773c0.626-0.078,1.253,0.029,1.871,0.094c0.627,0.569,1.254-0.031,1.921-0.172
			c0.627-0.018,1.294-0.033,1.961-0.27c1.286-0.35,2.621-1.014,3.996-2.327c4.126-4.288,8.504,3.687,13.127-0.919
			c2.335,2.06,4.712,2.723,7.12,2.85c2.466,0.252,4.924-0.555,7.463-0.379c2.58-0.902,5.168-0.08,7.837-1.426
			c2.661-0.521,5.412-0.475,8.162,0.998c2.792,2.214,5.624,2.214,8.505,2.563c2.913-1.582,5.826-0.016,8.829-0.712
			c3.003,1.282,6.039,0.285,9.164,0.775c3.084-1.788,6.209,1.187,9.415-0.302c2.417,0.175,4.834,0.54,7.292,1.221
			c2.466,0.506,4.964,2.91,7.463-1.029c2.498-3.323,5.037-1.473,7.584-1.439c2.58,0.379,5.168,2.547,7.788,0.996
			c2.629,0.049,5.249-2.152,7.919-0.191c2.669,2.122,5.379,2.295,8.081-0.014c2.71,0.409,5.46,3.26,8.211,0.791
			c2.792-0.887,5.583,0.014,8.374,0.109c2.832-4.62,5.664-1.406,8.504-1.85c2.873-2.422,5.746,1.076,8.668,1.439
			c2.872,2.168,5.826-1.582,8.748,0.791c2.953-6.124,5.916,0.301,8.91,0.301c3.004-1.266,6.006,1.533,9.042-0.111
			c3.044,1.678,6.087,0.68,9.171,0.761c3.085,1.565,6.17-1.822,9.246-1.362c3.125-0.157,6.25-1.218,9.424-0.412
			c3.125,2.152,6.29,2.104,9.496,1.679c3.207,0.238,6.373-0.158,9.627,0c3.207-0.761,6.454-0.632,9.709-0.207
			c3.248,0.729,6.535,0.286,9.831,0.191c3.288-0.364,6.583-0.839,9.921-1.315c3.328,0.461,6.664,0.699,9.992,0.491
			c3.378-0.443,6.756-3.163,10.125-3.29c3.377-3.006,6.795-0.586,10.172,2.563c3.418-0.348,6.877-4.746,10.287-2.832
			c3.458-0.966,6.916,1.803,10.375,0.902c3.459-1.012,6.959,0.048,10.417-0.016c3.499,1.994,6.999,1.756,10.547-0.078
			c3.499-4.528,7.04,0.475,10.579,1.993c3.541,1.123,7.088-1.567,10.629-1.108c3.58-2.152,7.121,2.469,10.709,1.885
			c3.581-1.489,7.162-1.602,10.791-0.857c2.873-3.116,5.746-0.852,8.619,0.791c2.921,1.172,5.793,3.309,8.715,0.066
			c2.914-2.074,5.787,1.328,8.708-0.746c2.913-0.395,5.827-0.314,8.749-0.127c2.953,0.999,5.875-2.672,8.789-0.963
			c2.961-0.081,5.875-0.966,8.838-0.57c2.912,1.219,5.875,2.688,8.829-0.65c2.962-1.709,5.876-1.709,8.829-0.426
			c2.963,2.09,5.966-3.086,8.92-1.898c2.963,3.164,5.916,0.853,8.879,2.373c2.994,1.359,5.957-1.884,8.91,0.823
			c3.004,1.471,5.966,2.548,8.961-0.634c2.962,6.076,5.957,2.295,8.959-1.155c2.963-2.752,5.957-4.272,8.961,0.728
			c2.953-2.516,5.957,0.285,8.959,0.744c2.996,0.9,5.998,1.092,8.953-1.059c3.002,1.755,6.006,3.084,9,1.186
			c3.003,4.715,6.006-4.351,9-0.648c3.004-1.678,6.006,0.27,9.002,1.344c3.002-2.482,5.997,0.792,9,0.822
			c3.003,4.067,5.998,4.51,9,3.656c3.004-0.695,5.998-1.93,9.002-1.504c3.002-0.742,5.997,0.222,9,1.693
			c2.994-1.803,5.998-4.637,8.96-1.898c2.995,1.613,5.997-1.63,9.001-0.109c2.994,0.029,5.998-0.872,8.951-1.268
			c3.004-4.191,6.006,1.742,9.001-2.721c2.962,2.927,5.957,2.294,8.919,1.328c1.498-3.545,3.004-3.67,4.5-2.199
			c1.457,0.252,2.955-2.294,4.461,1.852c1.496-2.578,2.953-2.974,4.459-1.629c1.498-0.08,2.954,1.867,4.451,1.693
			c1.465,3.353,2.963,2.926,4.46,1.85c1.456,0.666,2.962-2.879,4.419-1.535c3.003-1.313,5.957-2.657,8.92-1.17
			c2.953,1.217,5.875,4.826,8.829-0.111c2.962,0.16,5.917,1.504,8.838-0.428c2.954,1.045,5.868,0.648,8.829,2.105
			c2.918,0.016,5.836-1.55,8.749-2.105c2.962-1.344,5.876,0.443,8.793,0.697c2.917,3.687,5.79-0.315,8.708,0.063
			c1.461-1.915,2.918-3.733,4.334-2.421c1.456,1.376,2.917-0.079,4.377,0.489c1.416,1.759,2.873,5.271,4.33,1.22
			c1.416-3.498,2.877-1.424,4.293,2.451c3.625-0.568,7.206,5.048,10.791,2.326c3.584,0.381,7.166,0.112,10.709,0.745
			c3.586,3.211,7.125,0.205,10.666-0.665c3.539-0.759,7.043,0.143,10.587,1.043c3.499-0.141,6.999,0.111,10.498-2.262
			c3.499-0.886,6.958,0.254,10.417,1.455c3.499,1.661,6.917-3.1,10.375,0.127c3.457,0.523,6.873-2.563,10.291-0.568
			c3.416,2.831,6.791,0.474,10.166,0.253c3.376,0.475,6.749-2.185,10.124-1.187c3.335-0.745,6.667-1.774,10.002-1.202
			c3.333-0.618,6.624,1.628,9.916-0.444c3.292,1.139,6.584-0.332,9.833-0.681c3.249-2.309,6.5,1.819,9.709-0.222
			c3.248,1.393,6.457-1.28,9.625-0.236c3.208-0.08,6.374-1.186,9.499,1.518c3.167-1.139,6.292-1.359,9.417,0.713
			c3.125-0.602,6.208,2.264,9.25,1.313c3.084,2.977,6.125-3.416,9.167-1.026c3.042-1.599,6.04-2.992,9.041,0.396
			c3.001-2.041,5.96-3.799,8.917-1.442c2.959,1.741,5.874,1.663,8.751,0.129c2.915-2.422,5.79-3.134,8.665-1.044
			c2.834,1.074,5.668-1.378,8.5,1.106c2.791-0.522,5.584,1.013,8.376,0.744c2.749,0.096,5.499-2.944,8.207-2.849
			c2.71-3.07,5.418,0.222,8.083-2.674c2.668-1.203,5.292-0.838,7.918,1.25c2.625,1.787,5.209,3.07,7.791-0.427
			c2.543-0.507,5.084,1.108,7.584,0.712c2.541,1.061,4.999-1.614,7.459-0.982c2.457-1.962,4.875,2.943,7.291,4.082
			c3.209,0.081,6.334-0.852,9.459-0.33c3.082,1.629,6.124-0.618,9.125-0.508c2.998-0.792,5.916-0.933,8.834-1.392
			c2.875,0.063,5.707,0.87,8.498-0.222c2.75,0.821,5.501,4.178,8.168,3.435c2.666,0.221,5.249-0.413,7.791-1.71
			c5.124-2.912,9.999,0.428,14.625,0.633c4.625,1.314,8.999-2.896,13.125-0.236c4.124,1.66,7.959,0.759,11.582,0.33
			c7.209-0.711,13.334-1.042,18.293-1.502c9.959-0.933,15.291-1.282,15.291,1.502V230H0V197.066z"/>
	</g>
</g>
</svg>
