<?xml version="1.0" encoding="utf-8"?>
<!-- Generator: Adobe Illustrator 14.0.0, SVG Export Plug-In . SVG Version: 6.00 Build 43363)  -->
<!DOCTYPE svg PUBLIC "-//W3C//DTD SVG 1.0//EN" "http://www.w3.org/TR/2001/REC-SVG-20010904/DTD/svg10.dtd">
<svg version="1.0" id="Layer_1" xmlns="http://www.w3.org/2000/svg" xmlns:xlink="http://www.w3.org/1999/xlink" x="0px" y="0px"
	 width="1200px" height="230px" viewBox="0 0 1200 230" enable-background="new 0 0 1200 230" xml:space="preserve">
<g>
	<path fill="#DA2128" d="M1200,219.347V0.001L0,0v219.346c0,3.067,5.332,2.684,15.291,1.655c4.958-0.506,11.084-0.871,18.293-1.655
		c3.623-0.472,7.458-1.466,11.582,0.364c4.126,2.93,8.5-1.707,13.125-0.261c4.626,0.228,9.501,3.905,14.626,0.697
		c2.541-1.429,5.125-2.127,7.79-1.884c2.667-0.818,5.418,2.879,8.168,3.785c2.792-1.204,5.624-0.314,8.498-0.245
		c2.918-0.505,5.835-0.661,8.834-1.532c3.001,0.121,6.043-2.355,9.125-0.561c3.125,0.575,6.25-0.453,9.458-0.364
		c2.417,1.255,4.834,6.66,7.292,4.498c2.46,0.696,4.918-2.251,7.459-1.083c2.5-0.436,5.041,1.344,7.584,0.785
		c2.582-3.854,5.166-2.439,7.791-0.471c2.626,2.301,5.25,2.703,7.918,1.378c2.665-3.19,5.373,0.436,8.083-2.947
		c2.708,0.106,5.458-3.243,8.207-3.138c2.792-0.295,5.585,1.396,8.376,0.819c2.832,2.737,5.666,0.036,8.5,1.221
		c2.875,2.301,5.75,1.517,8.665-1.151c2.877-1.689,5.792-1.777,8.751,0.143c2.957,2.596,5.916,0.66,8.917-1.59
		c3.001,3.732,5.999,2.197,9.041,0.437c3.042,2.632,6.083-4.411,9.167-1.132c3.042-1.047,6.125,2.109,9.25,1.446
		c3.125,2.283,6.25,2.04,9.417,0.785c3.125,2.979,6.291,1.761,9.499,1.671c3.168,1.152,6.377-1.793,9.625-0.26
		c3.209-2.248,6.46,2.301,9.709-0.243c3.25-0.384,6.541-2.005,9.833-0.75c3.292-2.284,6.583,0.191,9.916-0.489
		c3.335,0.63,6.667-0.504,10.002-1.324c3.375,1.1,6.748-1.83,10.124-1.308c3.375-0.243,6.75-2.839,10.166,0.279
		c3.418,2.196,6.834-1.202,10.291-0.626c3.458,3.554,6.876-1.691,10.375,0.139c3.459,1.322,6.918,2.58,10.417,1.604
		c3.499-2.614,6.999-2.337,10.498-2.492c3.544,0.993,7.048,1.985,10.587,1.148c3.541-0.957,7.08-4.27,10.666-0.731
		c3.543,0.696,7.125,0.4,10.709,0.821c3.585-3,7.166,3.188,10.791,2.562c1.416,4.27,2.877,6.555,4.293,2.702
		c1.457-4.464,2.914-0.595,4.33,1.343c1.46,0.627,2.921-0.978,4.377,0.538c1.416,1.447,2.873-0.557,4.334-2.666
		c2.918,0.418,5.791-3.992,8.708,0.07c2.917,0.279,5.831,2.248,8.793,0.768c2.913-0.611,5.831-2.337,8.749-2.318
		c2.961,1.604,5.875,1.168,8.829,2.318c2.921-2.128,5.876-0.647,8.838-0.472c2.954-5.439,5.876-1.464,8.829-0.123
		c2.963,1.64,5.917,0.159,8.92-1.288c1.457,1.48,2.963-2.425,4.419-1.69c1.497-1.187,2.995-1.657,4.46,2.038
		c1.497-0.193,2.953,1.953,4.451,1.865c1.506,1.48,2.963,1.045,4.459-1.797c1.506,4.568,3.004,1.763,4.461,2.04
		c1.496,1.62,3.002,1.483,4.5-2.423c2.962-1.063,5.957-1.76,8.919,1.465c2.995-4.916,5.997,1.621,9.001-2.998
		c2.953-0.436,5.957-1.428,8.951-1.396c3.004,1.675,6.006-1.898,9.001-0.121c2.962,3.017,5.966-0.106,8.96-2.091
		c3.003,1.621,5.998,2.683,9,1.865c3.004,0.469,5.998-0.891,9.002-1.657c3.002-0.941,5.997-0.453,9,4.027
		c3.003,0.034,5.998,3.642,9,0.905c2.996,1.186,5.998,3.33,9.002,1.482c2.994,4.078,5.997-5.909,9-0.717
		c2.994-2.09,5.998-0.625,9,1.309c2.955-2.37,5.957-2.16,8.953-1.168c3.002,0.508,6.006,3.592,8.959,0.82
		c3.004,5.51,5.998,3.834,8.961,0.802c3.002-3.801,5.997-7.967,8.959-1.273c2.995-3.503,5.957-2.318,8.961-0.698
		c2.953,2.982,5.916-0.59,8.91,0.908c2.963,1.675,5.916-0.872,8.879,2.614c2.954,1.308,5.957-4.394,8.92-2.093
		c2.953,1.414,5.867,1.414,8.829-0.469c2.954-3.678,5.917-2.059,8.829-0.715c2.963,0.436,5.877-0.54,8.838-0.629
		c2.914,1.883,5.836-2.162,8.789-1.062c2.922,0.208,5.836,0.296,8.749-0.14c2.921-2.284,5.794,1.464,8.708-0.82
		c2.922-3.574,5.794-1.219,8.715,0.07c2.873,1.812,5.746,4.306,8.619,0.872c3.629,0.819,7.21,0.696,10.791-0.942
		c3.588-0.646,7.129,4.446,10.709,2.074c3.541,0.506,7.088-2.458,10.629-1.221c3.539,1.674,7.08,7.184,10.579,2.196
		c3.548-2.021,7.048-2.282,10.547-0.087c3.458-0.068,6.958,1.099,10.417-0.017c3.459-0.992,6.917,2.058,10.375,0.994
		c3.41,2.109,6.869-2.737,10.287-3.12c3.377,3.469,6.795,6.135,10.172,2.824c3.369-0.14,6.747-3.138,10.125-3.627
		c3.328-0.227,6.664,0.036,9.992,0.543c3.338-0.524,6.633-1.047,9.921-1.449c3.296-0.104,6.583-0.592,9.831,0.211
		c3.255,0.469,6.502,0.61,9.709-0.228c3.254,0.174,6.42-0.263,9.627,0c3.206-0.47,6.371-0.522,9.496,1.849
		c3.174,0.889,6.299-0.281,9.424-0.454c3.076,0.507,6.161-3.225,9.246-1.5c3.084,0.089,6.127-1.01,9.171,0.838
		c3.036-1.812,6.038,1.271,9.042-0.122c2.994,0,5.957,7.077,8.91,0.331c2.922,2.615,5.876-1.517,8.748,0.872
		c2.922,0.399,5.795,4.254,8.668,1.586c2.84-0.488,5.672,3.051,8.504-2.039c2.791,0.105,5.582,1.098,8.374,0.121
		c2.751-2.72,5.501,0.42,8.212,0.871c2.701-2.543,5.411-2.353,8.08-0.016c2.67,2.16,5.29-0.264,7.918-0.211
		c2.621-1.707,5.209,0.682,7.789,1.099c2.547,0.035,5.086,2.075,7.584-1.587c2.498-4.34,4.997-1.69,7.463-1.133
		c2.457,0.749,4.875,1.152,7.291,1.344c3.207-1.639,6.332,1.639,9.416-0.332c3.125,0.539,6.16-0.558,9.164,0.854
		c3.002-0.767,5.916,0.958,8.83-0.784c2.881,0.385,5.713,0.385,8.504,2.824c2.75,1.621,5.501,1.674,8.162,1.098
		c2.67-1.48,5.258-0.576,7.837-1.569c2.539,0.192,4.997-0.696,7.462-0.419c2.41,0.14,4.785,0.872,7.121,3.139
		c4.623-5.072,9.001,3.713,13.127-1.01c1.375-1.448,2.71-2.18,3.996-2.564c0.667-0.26,1.334-0.277,1.961-0.297
		c0.668-0.156,1.294-0.816,1.92-0.19c0.619,0.069,1.246,0.19,1.873,0.104c0.626-1.48,1.203-1.518,1.83-0.854
		c1.042,0.695,2.125,0.924,3.125,1.568c1.042-0.645,2.043,0.575,3.044-0.889c1.001,2.074,1.962,2.09,2.872,0.836
		c0.92,0,1.84-2.929,2.711-0.262c0.92,0.993,1.75,1.029,2.58,0.122c0.838,0.263,1.668-0.208,2.416,0.349
		c0.798,0.819,1.547-0.679,2.295,0.508c0.709-0.193,1.416-0.473,2.084-0.158c0.667-0.33,1.334,1.43,1.961,0.278
		c0.619-0.12,1.205,0.593,1.791-0.034c0.959-1.605,1.83-1.849,2.619-0.332c0.799-0.75,1.506-0.348,2.174,0.332
		c1.285,0.35,2.246-0.332,2.913-0.697C1199.666,220.583,1200,220.06,1200,219.347z"/>
	<g>
		<path fill="#FFFFFF" d="M0,197.066c0-0.647,0.334-1.122,1.001-1.471c0.667-0.332,1.628-0.95,2.913-0.634
			c0.668,0.619,1.376,0.982,2.173,0.302c0.79,1.377,1.66,1.155,2.621-0.302c0.586-0.568,1.172,0.079,1.79-0.03
			c0.627-1.045,1.294,0.553,1.961,0.253c0.668,0.285,1.376,0.031,2.084-0.144c0.748,1.077,1.497-0.282,2.295,0.461
			c0.748,0.505,1.578,0.079,2.417,0.316c0.83-0.823,1.66-0.792,2.579,0.109c0.871,2.422,1.791-0.236,2.71-0.236
			c0.912-1.139,1.872-1.124,2.873,0.759c1.001-1.328,2.002-0.223,3.044-0.807c1.001,0.584,2.083,0.791,3.125,1.423
			c0.626,0.603,1.204,0.57,1.831-0.774c0.626-0.078,1.253,0.031,1.871,0.095c0.627,0.569,1.254-0.031,1.921-0.173
			c0.627-0.017,1.294-0.032,1.961-0.27c1.286-0.349,2.621-1.013,3.996-2.326c4.126-4.288,8.504,3.687,13.127-0.918
			c2.335,2.059,4.712,2.723,7.12,2.85c2.466,0.252,4.924-0.555,7.463-0.381c2.58-0.902,5.168-0.08,7.837-1.424
			c2.661-0.523,5.412-0.475,8.162,0.996c2.792,2.215,5.624,2.215,8.505,2.563c2.913-1.582,5.826-0.016,8.829-0.712
			c3.003,1.282,6.039,0.285,9.164,0.775c3.084-1.787,6.209,1.188,9.415-0.302c2.417,0.175,4.834,0.54,7.292,1.22
			c2.466,0.507,4.964,2.91,7.463-1.028c2.498-3.323,5.037-1.472,7.584-1.439c2.58,0.379,5.168,2.547,7.788,0.996
			c2.629,0.048,5.249-2.152,7.919-0.19c2.669,2.121,5.379,2.294,8.081-0.015c2.71,0.409,5.46,3.259,8.211,0.791
			c2.792-0.887,5.583,0.015,8.374,0.11c2.832-4.621,5.664-1.408,8.504-1.852c2.873-2.421,5.746,1.076,8.668,1.439
			c2.872,2.169,5.826-1.582,8.748,0.792c2.953-6.124,5.916,0.301,8.91,0.301c3.004-1.266,6.006,1.533,9.042-0.11
			c3.044,1.676,6.087,0.68,9.171,0.76c3.085,1.566,6.17-1.822,9.246-1.361c3.125-0.158,6.25-1.219,9.424-0.413
			c3.125,2.153,6.29,2.104,9.496,1.679c3.207,0.238,6.373-0.158,9.627,0c3.207-0.76,6.454-0.632,9.709-0.207
			c3.248,0.729,6.535,0.285,9.831,0.191c3.288-0.364,6.583-0.839,9.921-1.314c3.328,0.46,6.664,0.698,9.992,0.49
			c3.378-0.443,6.756-3.164,10.125-3.291c3.377-3.006,6.795-0.586,10.172,2.564c3.418-0.349,6.877-4.748,10.287-2.833
			c3.458-0.966,6.916,1.804,10.375,0.902c3.459-1.013,6.959,0.048,10.417-0.017c3.499,1.995,6.999,1.756,10.547-0.078
			c3.499-4.527,7.04,0.476,10.579,1.994c3.541,1.123,7.088-1.566,10.629-1.107c3.58-2.153,7.121,2.469,10.709,1.883
			c3.581-1.488,7.162-1.6,10.791-0.856c2.873-3.116,5.746-0.853,8.619,0.792c2.921,1.171,5.793,3.309,8.715,0.064
			c2.914-2.073,5.787,1.329,8.708-0.744c2.913-0.396,5.827-0.316,8.749-0.127c2.953,0.998,5.875-2.674,8.789-0.965
			c2.961-0.08,5.875-0.965,8.838-0.57c2.912,1.219,5.875,2.689,8.829-0.648c2.962-1.71,5.876-1.71,8.829-0.426
			c2.963,2.088,5.966-3.086,8.92-1.9c2.963,3.165,5.916,0.854,8.879,2.374c2.994,1.36,5.957-1.884,8.91,0.823
			c3.004,1.471,5.966,2.547,8.961-0.633c2.962,6.074,5.957,2.294,8.959-1.156c2.963-2.752,5.957-4.272,8.961,0.729
			c2.953-2.516,5.957,0.283,8.959,0.744c2.996,0.9,5.998,1.091,8.953-1.061c3.002,1.756,6.006,3.084,9,1.188
			c3.003,4.714,6.006-4.352,9-0.648c3.004-1.68,6.006,0.268,9.002,1.344c3.002-2.483,5.997,0.791,9,0.821
			c3.003,4.067,5.998,4.511,9,3.656c3.004-0.695,5.998-1.93,9.002-1.503c3.002-0.744,5.997,0.221,9,1.691
			c2.994-1.802,5.998-4.635,8.96-1.896c2.995,1.612,5.997-1.631,9.001-0.111c2.994,0.03,5.998-0.871,8.951-1.267
			c3.004-4.192,6.006,1.742,9.001-2.721c2.962,2.927,5.957,2.294,8.919,1.329c1.498-3.545,3.004-3.67,4.5-2.199
			c1.457,0.252,2.955-2.295,4.461,1.852c1.496-2.579,2.953-2.975,4.459-1.631c1.498-0.08,2.954,1.868,4.451,1.693
			c1.465,3.354,2.963,2.928,4.46,1.85c1.456,0.666,2.962-2.878,4.419-1.533c3.003-1.314,5.957-2.658,8.92-1.17
			c2.953,1.217,5.875,4.825,8.829-0.111c2.962,0.158,5.917,1.503,8.838-0.428c2.954,1.044,5.868,0.648,8.829,2.104
			c2.918,0.018,5.836-1.549,8.749-2.104c2.962-1.346,5.876,0.443,8.793,0.696c2.917,3.687,5.79-0.315,8.708,0.063
			c1.461-1.915,2.918-3.733,4.334-2.42c1.456,1.375,2.917-0.08,4.377,0.488c1.416,1.758,2.873,5.271,4.33,1.219
			c1.416-3.497,2.877-1.423,4.293,2.452c3.625-0.568,7.206,5.048,10.791,2.326c3.584,0.382,7.166,0.112,10.709,0.745
			c3.586,3.211,7.125,0.205,10.666-0.665c3.539-0.759,7.043,0.143,10.587,1.044c3.499-0.142,6.999,0.11,10.498-2.263
			c3.499-0.886,6.958,0.255,10.417,1.454c3.499,1.662,6.917-3.099,10.375,0.128c3.457,0.522,6.873-2.563,10.291-0.568
			c3.416,2.831,6.791,0.474,10.166,0.253c3.376,0.475,6.749-2.185,10.124-1.187c3.335-0.745,6.667-1.774,10.002-1.202
			c3.333-0.618,6.624,1.629,9.916-0.443c3.292,1.139,6.584-0.333,9.833-0.682c3.249-2.309,6.5,1.82,9.709-0.221
			c3.248,1.393,6.457-1.281,9.625-0.236c3.208-0.08,6.374-1.188,9.499,1.517c3.167-1.139,6.292-1.359,9.417,0.713
			c3.125-0.601,6.208,2.263,9.25,1.313c3.084,2.976,6.125-3.416,9.167-1.027c3.042-1.598,6.04-2.992,9.041,0.395
			c3.001-2.041,5.96-3.798,8.917-1.441c2.959,1.742,5.874,1.663,8.751,0.129c2.915-2.422,5.79-3.134,8.665-1.045
			c2.834,1.076,5.668-1.377,8.5,1.107c2.791-0.521,5.584,1.013,8.376,0.744c2.749,0.096,5.499-2.943,8.207-2.848
			c2.71-3.07,5.418,0.221,8.083-2.676c2.668-1.201,5.292-0.837,7.918,1.25c2.625,1.789,5.209,3.071,7.791-0.426
			c2.543-0.507,5.084,1.107,7.584,0.713c2.541,1.059,4.999-1.615,7.459-0.983c2.457-1.962,4.875,2.943,7.291,4.082
			c3.209,0.081,6.334-0.853,9.459-0.331c3.082,1.63,6.124-0.617,9.125-0.508c2.998-0.791,5.916-0.932,8.834-1.391
			c2.875,0.064,5.707,0.87,8.498-0.223c2.75,0.822,5.501,4.179,8.168,3.436c2.666,0.221,5.249-0.413,7.791-1.709
			c5.124-2.912,9.999,0.427,14.625,0.633c4.625,1.313,8.999-2.896,13.125-0.238c4.124,1.661,7.959,0.76,11.582,0.331
			c7.209-0.711,13.334-1.042,18.293-1.501c9.959-0.934,15.291-1.283,15.291,1.501V230H0V197.066z"/>
	</g>
</g>
</svg>
