<?xml version="1.0" encoding="utf-8"?>
<!-- Generator: Adobe Illustrator 14.0.0, SVG Export Plug-In . SVG Version: 6.00 Build 43363)  -->
<!DOCTYPE svg PUBLIC "-//W3C//DTD SVG 1.1//EN" "http://www.w3.org/Graphics/SVG/1.1/DTD/svg11.dtd">
<svg version="1.1" id="Layer_1" xmlns="http://www.w3.org/2000/svg" xmlns:xlink="http://www.w3.org/1999/xlink" x="0px" y="0px"
	 width="496.8px" height="252px" viewBox="0 0 496.8 252" enable-background="new 0 0 496.8 252" xml:space="preserve">
<g>
	<g>
		<g>
			<polygon fill="#939598" points="430.414,160.443 460.747,160.443 453.747,144.109 437.414,144.109 			"/>
			<circle fill="#698037" cx="445.58" cy="200.943" r="50"/>
		</g>
		<g>
			<g>
				<g>
					<ellipse fill="#939598" cx="445.58" cy="105.914" rx="0.833" ry="0.819"/>
				</g>
				<g>
					<ellipse fill="#939598" cx="445.58" cy="108.37" rx="0.833" ry="0.819"/>
				</g>
				<g>
					<ellipse fill="#939598" cx="445.58" cy="110.827" rx="0.833" ry="0.819"/>
				</g>
				<g>
					<ellipse fill="#939598" cx="445.58" cy="113.283" rx="0.833" ry="0.819"/>
				</g>
				<g>
					<ellipse fill="#939598" cx="445.58" cy="115.74" rx="0.833" ry="0.819"/>
				</g>
				<g>
					<ellipse fill="#939598" cx="445.58" cy="118.196" rx="0.833" ry="0.819"/>
				</g>
				<g>
					<ellipse fill="#939598" cx="445.58" cy="120.653" rx="0.833" ry="0.819"/>
				</g>
				<g>
					<ellipse fill="#939598" cx="445.58" cy="123.109" rx="0.833" ry="0.819"/>
				</g>
				<g>
					<ellipse fill="#939598" cx="445.58" cy="125.565" rx="0.833" ry="0.819"/>
				</g>
				<g>
					<ellipse fill="#939598" cx="445.58" cy="128.022" rx="0.833" ry="0.819"/>
				</g>
				<g>
					<ellipse fill="#939598" cx="445.58" cy="130.479" rx="0.833" ry="0.818"/>
				</g>
				<g>
					<ellipse fill="#939598" cx="445.58" cy="132.936" rx="0.833" ry="0.818"/>
				</g>
				<g>
					<ellipse fill="#939598" cx="445.58" cy="135.392" rx="0.833" ry="0.819"/>
				</g>
				<g>
					<ellipse fill="#939598" cx="445.58" cy="137.849" rx="0.833" ry="0.819"/>
				</g>
				<g>
					<ellipse fill="#939598" cx="445.58" cy="140.305" rx="0.833" ry="0.818"/>
				</g>
			</g>
			<g>
				<g>
					<ellipse fill="#939598" cx="445.58" cy="71.522" rx="0.833" ry="0.819"/>
				</g>
				<g>
					<ellipse fill="#939598" cx="445.58" cy="73.979" rx="0.833" ry="0.819"/>
				</g>
				<g>
					<ellipse fill="#939598" cx="445.58" cy="76.436" rx="0.833" ry="0.819"/>
				</g>
				<g>
					<ellipse fill="#939598" cx="445.58" cy="78.892" rx="0.833" ry="0.819"/>
				</g>
				<g>
					<ellipse fill="#939598" cx="445.58" cy="81.349" rx="0.833" ry="0.819"/>
				</g>
				<g>
					<ellipse fill="#939598" cx="445.58" cy="83.805" rx="0.833" ry="0.819"/>
				</g>
				<g>
					<ellipse fill="#939598" cx="445.58" cy="86.262" rx="0.833" ry="0.819"/>
				</g>
				<g>
					<ellipse fill="#939598" cx="445.58" cy="88.718" rx="0.833" ry="0.819"/>
				</g>
				<g>
					<ellipse fill="#939598" cx="445.58" cy="91.174" rx="0.833" ry="0.819"/>
				</g>
				<g>
					<ellipse fill="#939598" cx="445.58" cy="93.631" rx="0.833" ry="0.819"/>
				</g>
				<g>
					<ellipse fill="#939598" cx="445.58" cy="96.087" rx="0.833" ry="0.819"/>
				</g>
				<g>
					<ellipse fill="#939598" cx="445.58" cy="98.544" rx="0.833" ry="0.819"/>
				</g>
				<g>
					<ellipse fill="#939598" cx="445.58" cy="101" rx="0.833" ry="0.819"/>
				</g>
				<g>
					<ellipse fill="#939598" cx="445.58" cy="103.457" rx="0.833" ry="0.819"/>
				</g>
			</g>
			<g>
				<g>
					<ellipse fill="#939598" cx="445.58" cy="39.588" rx="0.833" ry="0.819"/>
				</g>
				<g>
					<ellipse fill="#939598" cx="445.58" cy="42.044" rx="0.833" ry="0.819"/>
				</g>
				<g>
					<ellipse fill="#939598" cx="445.58" cy="44.501" rx="0.833" ry="0.819"/>
				</g>
				<g>
					<ellipse fill="#939598" cx="445.58" cy="46.958" rx="0.833" ry="0.819"/>
				</g>
				<g>
					<ellipse fill="#939598" cx="445.58" cy="49.414" rx="0.833" ry="0.819"/>
				</g>
				<g>
					<ellipse fill="#939598" cx="445.58" cy="51.871" rx="0.833" ry="0.819"/>
				</g>
				<g>
					<ellipse fill="#939598" cx="445.58" cy="54.327" rx="0.833" ry="0.819"/>
				</g>
				<g>
					<ellipse fill="#939598" cx="445.58" cy="56.783" rx="0.833" ry="0.819"/>
				</g>
				<g>
					<ellipse fill="#939598" cx="445.58" cy="59.24" rx="0.833" ry="0.819"/>
				</g>
				<g>
					<ellipse fill="#939598" cx="445.58" cy="61.696" rx="0.833" ry="0.819"/>
				</g>
				<g>
					<ellipse fill="#939598" cx="445.58" cy="64.153" rx="0.833" ry="0.819"/>
				</g>
				<g>
					<ellipse fill="#939598" cx="445.58" cy="66.609" rx="0.833" ry="0.819"/>
				</g>
				<g>
					<ellipse fill="#939598" cx="445.58" cy="69.066" rx="0.833" ry="0.819"/>
				</g>
			</g>
			<g>
				<g>
					<ellipse fill="#939598" cx="445.58" cy="10.11" rx="0.833" ry="0.819"/>
				</g>
				<g>
					<ellipse fill="#939598" cx="445.58" cy="12.566" rx="0.833" ry="0.819"/>
				</g>
				<g>
					<ellipse fill="#939598" cx="445.58" cy="15.023" rx="0.833" ry="0.819"/>
				</g>
				<g>
					<ellipse fill="#939598" cx="445.58" cy="17.479" rx="0.833" ry="0.819"/>
				</g>
				<g>
					<ellipse fill="#939598" cx="445.58" cy="19.936" rx="0.833" ry="0.819"/>
				</g>
				<g>
					<ellipse fill="#939598" cx="445.58" cy="22.393" rx="0.833" ry="0.819"/>
				</g>
				<g>
					<ellipse fill="#939598" cx="445.58" cy="24.849" rx="0.833" ry="0.819"/>
				</g>
				<g>
					<ellipse fill="#939598" cx="445.58" cy="27.305" rx="0.833" ry="0.819"/>
				</g>
				<g>
					<ellipse fill="#939598" cx="445.58" cy="29.762" rx="0.833" ry="0.819"/>
				</g>
				<g>
					<ellipse fill="#939598" cx="445.58" cy="32.218" rx="0.833" ry="0.819"/>
				</g>
				<g>
					<ellipse fill="#939598" cx="445.58" cy="34.675" rx="0.833" ry="0.819"/>
				</g>
				<g>
					<ellipse fill="#939598" cx="445.58" cy="37.131" rx="0.833" ry="0.819"/>
				</g>
			</g>
			<g>
				<g>
					<ellipse fill="#939598" cx="445.58" cy="2.74" rx="0.833" ry="0.819"/>
				</g>
				<g>
					<ellipse fill="#939598" cx="445.58" cy="5.197" rx="0.833" ry="0.819"/>
				</g>
				<g>
					<ellipse fill="#939598" cx="445.58" cy="7.653" rx="0.833" ry="0.819"/>
				</g>
			</g>
		</g>
	</g>
	<g>
		<g>
			<g>
				<g>
					<ellipse fill="#939598" cx="317.46" cy="55.919" rx="0.832" ry="0.819"/>
				</g>
				<g>
					<ellipse fill="#939598" cx="317.46" cy="58.375" rx="0.832" ry="0.819"/>
				</g>
				<g>
					<ellipse fill="#939598" cx="317.46" cy="60.832" rx="0.832" ry="0.819"/>
				</g>
				<g>
					<ellipse fill="#939598" cx="317.46" cy="63.289" rx="0.832" ry="0.819"/>
				</g>
				<g>
					<ellipse fill="#939598" cx="317.46" cy="65.745" rx="0.832" ry="0.819"/>
				</g>
				<g>
					<ellipse fill="#939598" cx="317.46" cy="68.202" rx="0.832" ry="0.819"/>
				</g>
				<g>
					<ellipse fill="#939598" cx="317.46" cy="70.658" rx="0.832" ry="0.819"/>
				</g>
				<g>
					<ellipse fill="#939598" cx="317.46" cy="73.115" rx="0.832" ry="0.819"/>
				</g>
				<g>
					<ellipse fill="#939598" cx="317.46" cy="75.571" rx="0.832" ry="0.819"/>
				</g>
				<g>
					<ellipse fill="#939598" cx="317.46" cy="78.027" rx="0.832" ry="0.819"/>
				</g>
				<g>
					<ellipse fill="#939598" cx="317.46" cy="80.484" rx="0.832" ry="0.819"/>
				</g>
				<g>
					<ellipse fill="#939598" cx="317.46" cy="82.94" rx="0.832" ry="0.819"/>
				</g>
				<g>
					<ellipse fill="#939598" cx="317.46" cy="85.397" rx="0.832" ry="0.819"/>
				</g>
				<g>
					<ellipse fill="#939598" cx="317.46" cy="87.854" rx="0.832" ry="0.819"/>
				</g>
				<g>
					<ellipse fill="#939598" cx="317.46" cy="90.31" rx="0.832" ry="0.819"/>
				</g>
			</g>
			<g>
				<g>
					<ellipse fill="#939598" cx="317.46" cy="21.528" rx="0.832" ry="0.819"/>
				</g>
				<g>
					<ellipse fill="#939598" cx="317.46" cy="23.984" rx="0.832" ry="0.819"/>
				</g>
				<g>
					<ellipse fill="#939598" cx="317.46" cy="26.441" rx="0.832" ry="0.819"/>
				</g>
				<g>
					<ellipse fill="#939598" cx="317.46" cy="28.897" rx="0.832" ry="0.819"/>
				</g>
				<g>
					<ellipse fill="#939598" cx="317.46" cy="31.354" rx="0.832" ry="0.819"/>
				</g>
				<g>
					<ellipse fill="#939598" cx="317.46" cy="33.811" rx="0.832" ry="0.819"/>
				</g>
				<g>
					<ellipse fill="#939598" cx="317.46" cy="36.267" rx="0.832" ry="0.819"/>
				</g>
				<g>
					<ellipse fill="#939598" cx="317.46" cy="38.723" rx="0.832" ry="0.819"/>
				</g>
				<g>
					<ellipse fill="#939598" cx="317.46" cy="41.18" rx="0.832" ry="0.819"/>
				</g>
				<g>
					<ellipse fill="#939598" cx="317.46" cy="43.636" rx="0.832" ry="0.819"/>
				</g>
				<g>
					<ellipse fill="#939598" cx="317.46" cy="46.093" rx="0.832" ry="0.819"/>
				</g>
				<g>
					<ellipse fill="#939598" cx="317.46" cy="48.549" rx="0.832" ry="0.819"/>
				</g>
				<g>
					<ellipse fill="#939598" cx="317.46" cy="51.006" rx="0.832" ry="0.819"/>
				</g>
				<g>
					<ellipse fill="#939598" cx="317.46" cy="53.462" rx="0.832" ry="0.819"/>
				</g>
			</g>
			<g>
				<g>
					<ellipse fill="#939598" cx="317.46" cy="1.876" rx="0.832" ry="0.819"/>
				</g>
				<g>
					<ellipse fill="#939598" cx="317.46" cy="4.333" rx="0.832" ry="0.819"/>
				</g>
				<g>
					<ellipse fill="#939598" cx="317.46" cy="6.789" rx="0.832" ry="0.819"/>
				</g>
				<g>
					<ellipse fill="#939598" cx="317.46" cy="9.245" rx="0.832" ry="0.819"/>
				</g>
				<g>
					<ellipse fill="#939598" cx="317.46" cy="11.702" rx="0.832" ry="0.819"/>
				</g>
				<g>
					<ellipse fill="#939598" cx="317.46" cy="14.158" rx="0.832" ry="0.819"/>
				</g>
				<g>
					<ellipse fill="#939598" cx="317.46" cy="16.615" rx="0.832" ry="0.819"/>
				</g>
				<g>
					<ellipse fill="#939598" cx="317.46" cy="19.071" rx="0.832" ry="0.819"/>
				</g>
			</g>
		</g>
		<g>
			<polygon fill="#939598" points="302.294,110.442 332.626,110.442 325.626,94.109 309.294,94.109 			"/>
			<circle fill="#DA2128" cx="317.459" cy="150.943" r="50"/>
		</g>
	</g>
	<g>
		<g>
			<g>
				<g>
					<ellipse fill="#939598" cx="51.22" cy="75.919" rx="0.833" ry="0.819"/>
				</g>
				<g>
					<ellipse fill="#939598" cx="51.22" cy="78.375" rx="0.833" ry="0.819"/>
				</g>
				<g>
					<ellipse fill="#939598" cx="51.22" cy="80.832" rx="0.833" ry="0.819"/>
				</g>
				<g>
					<ellipse fill="#939598" cx="51.22" cy="83.289" rx="0.833" ry="0.819"/>
				</g>
				<g>
					<ellipse fill="#939598" cx="51.22" cy="85.745" rx="0.833" ry="0.819"/>
				</g>
				<g>
					<ellipse fill="#939598" cx="51.22" cy="88.202" rx="0.833" ry="0.819"/>
				</g>
				<g>
					<ellipse fill="#939598" cx="51.22" cy="90.658" rx="0.833" ry="0.819"/>
				</g>
				<g>
					<ellipse fill="#939598" cx="51.22" cy="93.115" rx="0.833" ry="0.819"/>
				</g>
				<g>
					<ellipse fill="#939598" cx="51.22" cy="95.571" rx="0.833" ry="0.819"/>
				</g>
				<g>
					<ellipse fill="#939598" cx="51.22" cy="98.027" rx="0.833" ry="0.819"/>
				</g>
				<g>
					<ellipse fill="#939598" cx="51.22" cy="100.484" rx="0.833" ry="0.819"/>
				</g>
				<g>
					<ellipse fill="#939598" cx="51.22" cy="102.94" rx="0.833" ry="0.819"/>
				</g>
				<g>
					<ellipse fill="#939598" cx="51.22" cy="105.397" rx="0.833" ry="0.819"/>
				</g>
				<g>
					<ellipse fill="#939598" cx="51.22" cy="107.854" rx="0.833" ry="0.819"/>
				</g>
				<g>
					<ellipse fill="#939598" cx="51.22" cy="110.31" rx="0.833" ry="0.819"/>
				</g>
			</g>
			<g>
				<g>
					<ellipse fill="#939598" cx="51.22" cy="41.528" rx="0.833" ry="0.819"/>
				</g>
				<g>
					<ellipse fill="#939598" cx="51.22" cy="43.984" rx="0.833" ry="0.819"/>
				</g>
				<g>
					<ellipse fill="#939598" cx="51.22" cy="46.441" rx="0.833" ry="0.819"/>
				</g>
				<g>
					<ellipse fill="#939598" cx="51.22" cy="48.897" rx="0.833" ry="0.819"/>
				</g>
				<g>
					<ellipse fill="#939598" cx="51.22" cy="51.354" rx="0.833" ry="0.819"/>
				</g>
				<g>
					<ellipse fill="#939598" cx="51.22" cy="53.811" rx="0.833" ry="0.819"/>
				</g>
				<g>
					<ellipse fill="#939598" cx="51.22" cy="56.267" rx="0.833" ry="0.819"/>
				</g>
				<g>
					<ellipse fill="#939598" cx="51.22" cy="58.723" rx="0.833" ry="0.819"/>
				</g>
				<g>
					<ellipse fill="#939598" cx="51.22" cy="61.18" rx="0.833" ry="0.819"/>
				</g>
				<g>
					<ellipse fill="#939598" cx="51.22" cy="63.636" rx="0.833" ry="0.819"/>
				</g>
				<g>
					<ellipse fill="#939598" cx="51.22" cy="66.093" rx="0.833" ry="0.819"/>
				</g>
				<g>
					<ellipse fill="#939598" cx="51.22" cy="68.549" rx="0.833" ry="0.819"/>
				</g>
				<g>
					<ellipse fill="#939598" cx="51.22" cy="71.006" rx="0.833" ry="0.819"/>
				</g>
				<g>
					<ellipse fill="#939598" cx="51.22" cy="73.462" rx="0.833" ry="0.819"/>
				</g>
			</g>
			<g>
				<g>
					<ellipse fill="#939598" cx="51.22" cy="9.593" rx="0.833" ry="0.819"/>
				</g>
				<g>
					<ellipse fill="#939598" cx="51.22" cy="12.05" rx="0.833" ry="0.819"/>
				</g>
				<g>
					<ellipse fill="#939598" cx="51.22" cy="14.506" rx="0.833" ry="0.819"/>
				</g>
				<g>
					<ellipse fill="#939598" cx="51.22" cy="16.963" rx="0.833" ry="0.819"/>
				</g>
				<g>
					<ellipse fill="#939598" cx="51.22" cy="19.419" rx="0.833" ry="0.819"/>
				</g>
				<g>
					<ellipse fill="#939598" cx="51.22" cy="21.876" rx="0.833" ry="0.819"/>
				</g>
				<g>
					<ellipse fill="#939598" cx="51.22" cy="24.333" rx="0.833" ry="0.819"/>
				</g>
				<g>
					<ellipse fill="#939598" cx="51.22" cy="26.789" rx="0.833" ry="0.819"/>
				</g>
				<g>
					<ellipse fill="#939598" cx="51.22" cy="29.245" rx="0.833" ry="0.819"/>
				</g>
				<g>
					<ellipse fill="#939598" cx="51.22" cy="31.702" rx="0.833" ry="0.819"/>
				</g>
				<g>
					<ellipse fill="#939598" cx="51.22" cy="34.158" rx="0.833" ry="0.819"/>
				</g>
				<g>
					<ellipse fill="#939598" cx="51.22" cy="36.615" rx="0.833" ry="0.819"/>
				</g>
				<g>
					<ellipse fill="#939598" cx="51.22" cy="39.071" rx="0.833" ry="0.819"/>
				</g>
			</g>
			<g>
				<g>
					<ellipse fill="#939598" cx="51.22" cy="2.224" rx="0.833" ry="0.819"/>
				</g>
				<g>
					<ellipse fill="#939598" cx="51.22" cy="4.68" rx="0.833" ry="0.819"/>
				</g>
				<g>
					<ellipse fill="#939598" cx="51.22" cy="7.137" rx="0.833" ry="0.819"/>
				</g>
			</g>
		</g>
		<g>
			<polygon fill="#939598" points="36.054,130.443 66.388,130.443 59.388,114.109 43.054,114.109 			"/>
			<circle fill="#AC161B" cx="51.22" cy="170.943" r="50"/>
		</g>
	</g>
	<g>
		<g>
			<g>
				<g>
					<ellipse fill="#939598" cx="179.34" cy="46.413" rx="0.832" ry="0.819"/>
				</g>
				<g>
					<ellipse fill="#939598" cx="179.34" cy="48.87" rx="0.832" ry="0.819"/>
				</g>
				<g>
					<ellipse fill="#939598" cx="179.34" cy="51.326" rx="0.832" ry="0.819"/>
				</g>
				<g>
					<ellipse fill="#939598" cx="179.34" cy="53.783" rx="0.832" ry="0.819"/>
				</g>
				<g>
					<ellipse fill="#939598" cx="179.34" cy="56.239" rx="0.832" ry="0.819"/>
				</g>
				<g>
					<ellipse fill="#939598" cx="179.34" cy="58.696" rx="0.832" ry="0.819"/>
				</g>
				<g>
					<ellipse fill="#939598" cx="179.34" cy="61.152" rx="0.832" ry="0.819"/>
				</g>
				<g>
					<ellipse fill="#939598" cx="179.34" cy="63.609" rx="0.832" ry="0.819"/>
				</g>
				<g>
					<ellipse fill="#939598" cx="179.34" cy="66.065" rx="0.832" ry="0.819"/>
				</g>
				<g>
					<ellipse fill="#939598" cx="179.34" cy="68.521" rx="0.832" ry="0.819"/>
				</g>
				<g>
					<ellipse fill="#939598" cx="179.34" cy="70.978" rx="0.832" ry="0.819"/>
				</g>
				<g>
					<ellipse fill="#939598" cx="179.34" cy="73.435" rx="0.832" ry="0.819"/>
				</g>
				<g>
					<ellipse fill="#939598" cx="179.34" cy="75.891" rx="0.832" ry="0.819"/>
				</g>
				<g>
					<ellipse fill="#939598" cx="179.34" cy="78.348" rx="0.832" ry="0.819"/>
				</g>
				<g>
					<ellipse fill="#939598" cx="179.34" cy="80.804" rx="0.832" ry="0.819"/>
				</g>
			</g>
			<g>
				<g>
					<ellipse fill="#939598" cx="179.34" cy="12.022" rx="0.832" ry="0.819"/>
				</g>
				<g>
					<ellipse fill="#939598" cx="179.34" cy="14.479" rx="0.832" ry="0.819"/>
				</g>
				<g>
					<ellipse fill="#939598" cx="179.34" cy="16.935" rx="0.832" ry="0.819"/>
				</g>
				<g>
					<ellipse fill="#939598" cx="179.34" cy="19.392" rx="0.832" ry="0.819"/>
				</g>
				<g>
					<ellipse fill="#939598" cx="179.34" cy="21.848" rx="0.832" ry="0.819"/>
				</g>
				<g>
					<ellipse fill="#939598" cx="179.34" cy="24.305" rx="0.832" ry="0.819"/>
				</g>
				<g>
					<ellipse fill="#939598" cx="179.34" cy="26.761" rx="0.832" ry="0.819"/>
				</g>
				<g>
					<ellipse fill="#939598" cx="179.34" cy="29.218" rx="0.832" ry="0.819"/>
				</g>
				<g>
					<ellipse fill="#939598" cx="179.34" cy="31.674" rx="0.832" ry="0.819"/>
				</g>
				<g>
					<ellipse fill="#939598" cx="179.34" cy="34.13" rx="0.832" ry="0.819"/>
				</g>
				<g>
					<ellipse fill="#939598" cx="179.34" cy="36.587" rx="0.832" ry="0.819"/>
				</g>
				<g>
					<ellipse fill="#939598" cx="179.34" cy="39.043" rx="0.832" ry="0.819"/>
				</g>
				<g>
					<ellipse fill="#939598" cx="179.34" cy="41.5" rx="0.832" ry="0.819"/>
				</g>
				<g>
					<ellipse fill="#939598" cx="179.34" cy="43.957" rx="0.832" ry="0.819"/>
				</g>
			</g>
			<g>
				<g>
					<ellipse fill="#939598" cx="179.34" cy="2.196" rx="0.832" ry="0.819"/>
				</g>
				<g>
					<ellipse fill="#939598" cx="179.34" cy="4.652" rx="0.832" ry="0.819"/>
				</g>
				<g>
					<ellipse fill="#939598" cx="179.34" cy="7.109" rx="0.832" ry="0.819"/>
				</g>
				<g>
					<ellipse fill="#939598" cx="179.34" cy="9.565" rx="0.832" ry="0.819"/>
				</g>
			</g>
		</g>
		<g>
			<polygon fill="#939598" points="164.174,100.945 194.506,100.945 187.506,84.612 171.174,84.612 			"/>
			<circle fill="#8DC63F" cx="179.34" cy="141.445" r="50"/>
		</g>
	</g>
</g>
</svg>
