<?xml version="1.0" encoding="utf-8"?>
<!-- Generator: Adobe Illustrator 14.0.0, SVG Export Plug-In . SVG Version: 6.00 Build 43363)  -->
<!DOCTYPE svg PUBLIC "-//W3C//DTD SVG 1.0//EN" "http://www.w3.org/TR/2001/REC-SVG-20010904/DTD/svg10.dtd">
<svg version="1.0" id="Layer_1" xmlns="http://www.w3.org/2000/svg" xmlns:xlink="http://www.w3.org/1999/xlink" x="0px" y="0px"
	 width="115px" height="14.25px" viewBox="0 0 115 14.25" enable-background="new 0 0 115 14.25" xml:space="preserve">
<g>
	<path fill="#6793CD" d="M0.496,8.551c0-0.789,0.278-1.461,0.834-2.018c0.555-0.555,1.228-0.832,2.017-0.832
		c0,0.789-0.277,1.461-0.833,2.018C1.959,8.273,1.286,8.551,0.496,8.551z M0.496,11.402c0-0.789,0.278-1.463,0.834-2.018
		C1.885,8.83,2.558,8.551,3.347,8.551c0,0.789-0.277,1.461-0.833,2.018C1.959,11.123,1.286,11.402,0.496,11.402z M6.197,5.701
		c-0.789,0-1.462-0.279-2.018-0.834C3.625,4.313,3.347,3.639,3.347,2.85c0.79,0,1.462,0.279,2.017,0.834
		C5.92,4.24,6.197,4.912,6.197,5.701z M6.197,8.551c-0.789,0-1.462-0.277-2.018-0.832C3.625,7.162,3.347,6.49,3.347,5.701
		c0.79,0,1.462,0.277,2.017,0.832C5.92,7.09,6.197,7.762,6.197,8.551z M6.197,11.402c-0.789,0-1.462-0.279-2.018-0.834
		C3.625,10.012,3.347,9.34,3.347,8.551c0.79,0,1.462,0.279,2.017,0.834C5.92,9.939,6.197,10.613,6.197,11.402z M6.197,14.25
		c-0.789,0-1.462-0.275-2.018-0.832c-0.555-0.555-0.833-1.227-0.833-2.016c0.79,0,1.462,0.275,2.017,0.832
		C5.92,12.789,6.197,13.461,6.197,14.25z M6.197,5.701c0-0.789,0.277-1.461,0.833-2.018C7.586,3.129,8.258,2.85,9.047,2.85
		c0,0.789-0.277,1.463-0.833,2.018S6.986,5.701,6.197,5.701z M6.197,8.551c0-0.789,0.277-1.461,0.833-2.018
		c0.556-0.555,1.228-0.832,2.017-0.832c0,0.789-0.277,1.461-0.833,2.018C7.658,8.273,6.986,8.551,6.197,8.551z M6.197,11.402
		c0-0.789,0.277-1.463,0.833-2.018s1.228-0.834,2.017-0.834c0,0.789-0.277,1.461-0.833,2.018
		C7.658,11.123,6.986,11.402,6.197,11.402z M6.197,14.25c0-0.789,0.277-1.461,0.833-2.016c0.556-0.557,1.228-0.832,2.017-0.832
		c0,0.789-0.277,1.461-0.833,2.016C7.658,13.975,6.986,14.25,6.197,14.25z M11.897,8.551c-0.79,0-1.462-0.277-2.017-0.832
		C9.324,7.162,9.047,6.49,9.047,5.701c0.789,0,1.462,0.277,2.018,0.832C11.619,7.09,11.897,7.762,11.897,8.551z M11.897,11.402
		c-0.79,0-1.462-0.279-2.017-0.834C9.324,10.012,9.047,9.34,9.047,8.551c0.789,0,1.462,0.279,2.018,0.834
		C11.619,9.939,11.897,10.613,11.897,11.402z"/>
	<path fill="#6793CD" d="M34.699,8.551c0-0.789,0.277-1.461,0.832-2.018c0.557-0.555,1.229-0.832,2.018-0.832
		c0,0.789-0.277,1.461-0.833,2.018C36.16,8.273,35.488,8.551,34.699,8.551z"/>
	<path fill="#6793CD" d="M34.699,11.402c0-0.789,0.277-1.463,0.832-2.018c0.557-0.555,1.229-0.834,2.018-0.834
		c0,0.789-0.277,1.461-0.833,2.018C36.16,11.123,35.488,11.402,34.699,11.402z"/>
	<path fill="#6793CD" d="M40.398,5.701c-0.789,0-1.461-0.279-2.017-0.834s-0.833-1.229-0.833-2.018c0.789,0,1.461,0.279,2.018,0.834
		C40.121,4.24,40.398,4.912,40.398,5.701z"/>
	<path fill="#6793CD" d="M40.398,8.551c-0.789,0-1.461-0.277-2.017-0.832c-0.556-0.557-0.833-1.229-0.833-2.018
		c0.789,0,1.461,0.277,2.018,0.832C40.121,7.09,40.398,7.762,40.398,8.551z"/>
	<path fill="#6793CD" d="M40.398,11.402c-0.789,0-1.461-0.279-2.017-0.834c-0.556-0.557-0.833-1.229-0.833-2.018
		c0.789,0,1.461,0.279,2.018,0.834C40.121,9.939,40.398,10.613,40.398,11.402z"/>
	<path fill="#6793CD" d="M40.398,14.25c-0.789,0-1.461-0.275-2.017-0.832c-0.556-0.555-0.833-1.227-0.833-2.016
		c0.789,0,1.461,0.275,2.018,0.832C40.121,12.789,40.398,13.461,40.398,14.25z"/>
	<path fill="#6793CD" d="M40.398,5.701c0-0.789,0.278-1.461,0.834-2.018c0.555-0.555,1.228-0.834,2.017-0.834
		c0,0.789-0.277,1.463-0.833,2.018C41.861,5.422,41.188,5.701,40.398,5.701z"/>
	<path fill="#6793CD" d="M40.398,8.551c0-0.789,0.278-1.461,0.834-2.018c0.555-0.555,1.228-0.832,2.017-0.832
		c0,0.789-0.277,1.461-0.833,2.018C41.861,8.273,41.188,8.551,40.398,8.551z"/>
	<path fill="#6793CD" d="M40.398,11.402c0-0.789,0.278-1.463,0.834-2.018c0.555-0.555,1.228-0.834,2.017-0.834
		c0,0.789-0.277,1.461-0.833,2.018C41.861,11.123,41.188,11.402,40.398,11.402z"/>
	<path fill="#6793CD" d="M40.398,14.25c0-0.789,0.278-1.461,0.834-2.016c0.555-0.557,1.228-0.832,2.017-0.832
		c0,0.789-0.277,1.461-0.833,2.016C41.861,13.975,41.188,14.25,40.398,14.25z"/>
	<path fill="#6793CD" d="M46.1,8.551c-0.789,0-1.462-0.277-2.018-0.832c-0.555-0.557-0.833-1.229-0.833-2.018
		c0.79,0,1.462,0.277,2.017,0.832C45.822,7.09,46.1,7.762,46.1,8.551z"/>
	<path fill="#6793CD" d="M46.1,11.402c-0.789,0-1.462-0.279-2.018-0.834c-0.555-0.557-0.833-1.229-0.833-2.018
		c0.79,0,1.462,0.279,2.017,0.834C45.822,9.939,46.1,10.613,46.1,11.402z"/>
	<path fill="#6793CD" d="M68.9,8.551c0-0.789,0.277-1.461,0.834-2.018c0.555-0.555,1.227-0.832,2.016-0.832
		c0,0.789-0.277,1.461-0.832,2.018C70.361,8.273,69.689,8.551,68.9,8.551z"/>
	<path fill="#6793CD" d="M68.9,11.402c0-0.789,0.277-1.463,0.834-2.018c0.555-0.555,1.227-0.834,2.016-0.834
		c0,0.789-0.277,1.461-0.832,2.018C70.361,11.123,69.689,11.402,68.9,11.402z"/>
	<path fill="#6793CD" d="M74.602,5.701c-0.789,0-1.463-0.279-2.018-0.834S71.75,3.639,71.75,2.85c0.789,0,1.463,0.279,2.018,0.834
		C74.322,4.24,74.602,4.912,74.602,5.701z"/>
	<path fill="#6793CD" d="M74.602,8.551c-0.789,0-1.463-0.277-2.018-0.832C72.029,7.162,71.75,6.49,71.75,5.701
		c0.789,0,1.463,0.277,2.018,0.832C74.322,7.09,74.602,7.762,74.602,8.551z"/>
	<path fill="#6793CD" d="M74.602,11.402c-0.789,0-1.463-0.279-2.018-0.834c-0.555-0.557-0.834-1.229-0.834-2.018
		c0.789,0,1.463,0.279,2.018,0.834S74.602,10.613,74.602,11.402z"/>
	<path fill="#6793CD" d="M74.602,14.25c-0.789,0-1.463-0.275-2.018-0.832c-0.555-0.555-0.834-1.227-0.834-2.016
		c0.789,0,1.463,0.275,2.018,0.832C74.322,12.789,74.602,13.461,74.602,14.25z"/>
	<path fill="#6793CD" d="M74.602,5.701c0-0.789,0.277-1.461,0.832-2.018c0.557-0.555,1.229-0.834,2.018-0.834
		c0,0.789-0.277,1.463-0.834,2.018C76.063,5.422,75.391,5.701,74.602,5.701z"/>
	<path fill="#6793CD" d="M74.602,8.551c0-0.789,0.277-1.461,0.832-2.018c0.557-0.555,1.229-0.832,2.018-0.832
		c0,0.789-0.277,1.461-0.834,2.018C76.063,8.273,75.391,8.551,74.602,8.551z"/>
	<path fill="#6793CD" d="M74.602,11.402c0-0.789,0.277-1.463,0.832-2.018c0.557-0.555,1.229-0.834,2.018-0.834
		c0,0.789-0.277,1.461-0.834,2.018C76.063,11.123,75.391,11.402,74.602,11.402z"/>
	<path fill="#6793CD" d="M74.602,14.25c0-0.789,0.277-1.461,0.832-2.016c0.557-0.557,1.229-0.832,2.018-0.832
		c0,0.789-0.277,1.461-0.834,2.016C76.063,13.975,75.391,14.25,74.602,14.25z"/>
	<path fill="#6793CD" d="M80.301,8.551c-0.789,0-1.461-0.277-2.018-0.832c-0.555-0.557-0.832-1.229-0.832-2.018
		c0.789,0,1.461,0.277,2.018,0.832C80.023,7.09,80.301,7.762,80.301,8.551z"/>
	<path fill="#6793CD" d="M80.301,11.402c-0.789,0-1.461-0.279-2.018-0.834c-0.555-0.557-0.832-1.229-0.832-2.018
		c0.789,0,1.461,0.279,2.018,0.834C80.023,9.939,80.301,10.613,80.301,11.402z"/>
	<path fill="#6793CD" d="M103.102,8.551c0-0.789,0.279-1.461,0.834-2.018c0.555-0.555,1.229-0.832,2.018-0.832
		c0,0.789-0.277,1.461-0.834,2.018C104.564,8.273,103.893,8.551,103.102,8.551z"/>
	<path fill="#6793CD" d="M103.102,11.402c0-0.789,0.279-1.463,0.834-2.018s1.229-0.834,2.018-0.834c0,0.789-0.277,1.461-0.834,2.018
		C104.564,11.123,103.893,11.402,103.102,11.402z"/>
	<path fill="#6793CD" d="M108.803,5.701c-0.789,0-1.461-0.279-2.018-0.834c-0.555-0.555-0.832-1.229-0.832-2.018
		c0.789,0,1.461,0.279,2.016,0.834C108.525,4.24,108.803,4.912,108.803,5.701z"/>
	<path fill="#6793CD" d="M108.803,8.551c-0.789,0-1.461-0.277-2.018-0.832c-0.555-0.557-0.832-1.229-0.832-2.018
		c0.789,0,1.461,0.277,2.016,0.832C108.525,7.09,108.803,7.762,108.803,8.551z"/>
	<path fill="#6793CD" d="M108.803,11.402c-0.789,0-1.461-0.279-2.018-0.834c-0.555-0.557-0.832-1.229-0.832-2.018
		c0.789,0,1.461,0.279,2.016,0.834C108.525,9.939,108.803,10.613,108.803,11.402z"/>
	<path fill="#6793CD" d="M108.803,14.25c-0.789,0-1.461-0.275-2.018-0.832c-0.555-0.555-0.832-1.227-0.832-2.016
		c0.789,0,1.461,0.275,2.016,0.832C108.525,12.789,108.803,13.461,108.803,14.25z"/>
	<path fill="#6793CD" d="M108.803,5.701c0-0.789,0.277-1.461,0.834-2.018c0.555-0.555,1.227-0.834,2.016-0.834
		c0,0.789-0.277,1.463-0.832,2.018C110.264,5.422,109.592,5.701,108.803,5.701z"/>
	<path fill="#6793CD" d="M108.803,8.551c0-0.789,0.277-1.461,0.834-2.018c0.555-0.555,1.227-0.832,2.016-0.832
		c0,0.789-0.277,1.461-0.832,2.018C110.264,8.273,109.592,8.551,108.803,8.551z"/>
	<path fill="#6793CD" d="M108.803,11.402c0-0.789,0.277-1.463,0.834-2.018c0.555-0.555,1.227-0.834,2.016-0.834
		c0,0.789-0.277,1.461-0.832,2.018C110.264,11.123,109.592,11.402,108.803,11.402z"/>
	<path fill="#6793CD" d="M108.803,14.25c0-0.789,0.277-1.461,0.834-2.016c0.555-0.557,1.227-0.832,2.016-0.832
		c0,0.789-0.277,1.461-0.832,2.016C110.264,13.975,109.592,14.25,108.803,14.25z"/>
	<path fill="#6793CD" d="M114.504,8.551c-0.791,0-1.463-0.277-2.018-0.832c-0.555-0.557-0.834-1.229-0.834-2.018
		c0.789,0,1.463,0.277,2.018,0.832C114.225,7.09,114.504,7.762,114.504,8.551z"/>
	<path fill="#6793CD" d="M114.504,11.402c-0.791,0-1.463-0.279-2.018-0.834c-0.555-0.557-0.834-1.229-0.834-2.018
		c0.789,0,1.463,0.279,2.018,0.834S114.504,10.613,114.504,11.402z"/>
	<path fill="#20407A" d="M17.598,5.701c0-0.789,0.277-1.461,0.833-2.018c0.556-0.555,1.228-0.834,2.017-0.834
		c0,0.789-0.281,1.463-0.848,2.018C19.045,5.422,18.377,5.701,17.598,5.701z"/>
	<path fill="#20407A" d="M17.598,8.551c0-0.789,0.277-1.461,0.833-2.018c0.556-0.555,1.228-0.832,2.017-0.832
		c0,0.789-0.281,1.461-0.848,2.018C19.045,8.273,18.377,8.551,17.598,8.551z"/>
	<path fill="#20407A" d="M23.298,2.85c-0.789,0-1.462-0.275-2.017-0.832C20.726,1.463,20.447,0.79,20.447,0
		c0.78,0,1.447,0.277,2.003,0.833C23.016,1.389,23.298,2.061,23.298,2.85z"/>
	<path fill="#20407A" d="M23.298,5.701c-0.789,0-1.462-0.279-2.017-0.834c-0.556-0.555-0.834-1.229-0.834-2.018
		c0.78,0,1.447,0.279,2.003,0.834C23.016,4.24,23.298,4.912,23.298,5.701z"/>
	<path fill="#20407A" d="M23.298,8.551c-0.789,0-1.462-0.277-2.017-0.832c-0.556-0.557-0.834-1.229-0.834-2.018
		c0.78,0,1.447,0.277,2.003,0.832C23.016,7.09,23.298,7.762,23.298,8.551z"/>
	<path fill="#20407A" d="M23.298,11.402c-0.789,0-1.462-0.279-2.017-0.834c-0.556-0.557-0.834-1.229-0.834-2.018
		c0.78,0,1.447,0.279,2.003,0.834C23.016,9.939,23.298,10.613,23.298,11.402z"/>
	<path fill="#20407A" d="M23.298,2.85c0-0.789,0.278-1.461,0.833-2.017C24.687,0.277,25.359,0,26.148,0
		c0,0.79-0.277,1.463-0.834,2.018C24.75,2.574,24.078,2.85,23.298,2.85z"/>
	<path fill="#20407A" d="M23.298,5.701c0-0.789,0.278-1.461,0.833-2.018c0.556-0.555,1.229-0.834,2.018-0.834
		c0,0.789-0.277,1.463-0.834,2.018C24.75,5.422,24.078,5.701,23.298,5.701z"/>
	<path fill="#20407A" d="M23.298,8.551c0-0.789,0.278-1.461,0.833-2.018c0.556-0.555,1.229-0.832,2.018-0.832
		c0,0.789-0.277,1.461-0.834,2.018C24.75,8.273,24.078,8.551,23.298,8.551z"/>
	<path fill="#20407A" d="M23.298,11.402c0-0.789,0.278-1.463,0.833-2.018c0.556-0.555,1.229-0.834,2.018-0.834
		c0,0.789-0.277,1.461-0.834,2.018C24.75,11.123,24.078,11.402,23.298,11.402z"/>
	<path fill="#20407A" d="M28.998,5.701c-0.789,0-1.461-0.279-2.017-0.834s-0.833-1.229-0.833-2.018c0.779,0,1.451,0.279,2.017,0.834
		C28.721,4.24,28.998,4.912,28.998,5.701z"/>
	<path fill="#20407A" d="M28.998,8.551c-0.789,0-1.461-0.277-2.017-0.832c-0.556-0.557-0.833-1.229-0.833-2.018
		c0.779,0,1.451,0.277,2.017,0.832C28.721,7.09,28.998,7.762,28.998,8.551z"/>
	<path fill="#20407A" d="M51.8,5.701c0-0.789,0.278-1.461,0.833-2.018c0.556-0.555,1.229-0.834,2.018-0.834
		c0,0.789-0.283,1.463-0.848,2.018C53.246,5.422,52.579,5.701,51.8,5.701z"/>
	<path fill="#20407A" d="M51.8,8.551c0-0.789,0.278-1.461,0.833-2.018c0.556-0.555,1.229-0.832,2.018-0.832
		c0,0.789-0.283,1.461-0.848,2.018C53.246,8.273,52.579,8.551,51.8,8.551z"/>
	<path fill="#20407A" d="M57.5,2.85c-0.789,0-1.461-0.275-2.018-0.832C54.928,1.463,54.65,0.79,54.65,0
		c0.779,0,1.446,0.277,2.002,0.833C57.217,1.389,57.5,2.061,57.5,2.85z"/>
	<path fill="#20407A" d="M57.5,5.701c-0.789,0-1.461-0.279-2.018-0.834C54.928,4.313,54.65,3.639,54.65,2.85
		c0.779,0,1.446,0.279,2.002,0.834C57.217,4.24,57.5,4.912,57.5,5.701z"/>
	<path fill="#20407A" d="M57.5,8.551c-0.789,0-1.461-0.277-2.018-0.832C54.928,7.162,54.65,6.49,54.65,5.701
		c0.779,0,1.446,0.277,2.002,0.832C57.217,7.09,57.5,7.762,57.5,8.551z"/>
	<path fill="#20407A" d="M57.5,11.402c-0.789,0-1.461-0.279-2.018-0.834c-0.555-0.557-0.832-1.229-0.832-2.018
		c0.779,0,1.446,0.279,2.002,0.834C57.217,9.939,57.5,10.613,57.5,11.402z"/>
	<path fill="#20407A" d="M57.5,2.85c0-0.789,0.277-1.461,0.833-2.017S59.561,0,60.35,0c0,0.79-0.277,1.463-0.832,2.018
		C58.951,2.574,58.279,2.85,57.5,2.85z"/>
	<path fill="#20407A" d="M57.5,5.701c0-0.789,0.277-1.461,0.833-2.018c0.556-0.555,1.228-0.834,2.017-0.834
		c0,0.789-0.277,1.463-0.832,2.018C58.951,5.422,58.279,5.701,57.5,5.701z"/>
	<path fill="#20407A" d="M57.5,8.551c0-0.789,0.277-1.461,0.833-2.018c0.556-0.555,1.228-0.832,2.017-0.832
		c0,0.789-0.277,1.461-0.832,2.018C58.951,8.273,58.279,8.551,57.5,8.551z"/>
	<path fill="#20407A" d="M57.5,11.402c0-0.789,0.277-1.463,0.833-2.018s1.228-0.834,2.017-0.834c0,0.789-0.277,1.461-0.832,2.018
		C58.951,11.123,58.279,11.402,57.5,11.402z"/>
	<path fill="#20407A" d="M63.199,5.701c-0.789,0-1.461-0.279-2.016-0.834C60.627,4.313,60.35,3.639,60.35,2.85
		c0.779,0,1.453,0.279,2.018,0.834C62.922,4.24,63.199,4.912,63.199,5.701z"/>
	<path fill="#20407A" d="M63.199,8.551c-0.789,0-1.461-0.277-2.016-0.832C60.627,7.162,60.35,6.49,60.35,5.701
		c0.779,0,1.453,0.277,2.018,0.832C62.922,7.09,63.199,7.762,63.199,8.551z"/>
	<path fill="#20407A" d="M86.002,5.701c0-0.789,0.277-1.461,0.832-2.018c0.557-0.555,1.229-0.834,2.018-0.834
		c0,0.789-0.283,1.463-0.848,2.018C87.449,5.422,86.781,5.701,86.002,5.701z"/>
	<path fill="#20407A" d="M86.002,8.551c0-0.789,0.277-1.461,0.832-2.018c0.557-0.555,1.229-0.832,2.018-0.832
		c0,0.789-0.283,1.461-0.848,2.018C87.449,8.273,86.781,8.551,86.002,8.551z"/>
	<path fill="#20407A" d="M91.701,2.85c-0.789,0-1.461-0.275-2.016-0.832C89.129,1.463,88.852,0.79,88.852,0
		c0.779,0,1.447,0.277,2.002,0.833C91.42,1.389,91.701,2.061,91.701,2.85z"/>
	<path fill="#20407A" d="M91.701,5.701c-0.789,0-1.461-0.279-2.016-0.834c-0.557-0.555-0.834-1.229-0.834-2.018
		c0.779,0,1.447,0.279,2.002,0.834C91.42,4.24,91.701,4.912,91.701,5.701z"/>
	<path fill="#20407A" d="M91.701,8.551c-0.789,0-1.461-0.277-2.016-0.832c-0.557-0.557-0.834-1.229-0.834-2.018
		c0.779,0,1.447,0.277,2.002,0.832C91.42,7.09,91.701,7.762,91.701,8.551z"/>
	<path fill="#20407A" d="M91.701,11.402c-0.789,0-1.461-0.279-2.016-0.834c-0.557-0.557-0.834-1.229-0.834-2.018
		c0.779,0,1.447,0.279,2.002,0.834C91.42,9.939,91.701,10.613,91.701,11.402z"/>
	<path fill="#20407A" d="M91.701,2.85c0-0.789,0.279-1.461,0.834-2.017S93.764,0,94.553,0c0,0.79-0.279,1.463-0.834,2.018
		C93.154,2.574,92.48,2.85,91.701,2.85z"/>
	<path fill="#20407A" d="M91.701,5.701c0-0.789,0.279-1.461,0.834-2.018c0.555-0.555,1.229-0.834,2.018-0.834
		c0,0.789-0.279,1.463-0.834,2.018C93.154,5.422,92.48,5.701,91.701,5.701z"/>
	<path fill="#20407A" d="M91.701,8.551c0-0.789,0.279-1.461,0.834-2.018c0.555-0.555,1.229-0.832,2.018-0.832
		c0,0.789-0.279,1.461-0.834,2.018C93.154,8.273,92.48,8.551,91.701,8.551z"/>
	<path fill="#20407A" d="M91.701,11.402c0-0.789,0.279-1.463,0.834-2.018s1.229-0.834,2.018-0.834c0,0.789-0.279,1.461-0.834,2.018
		C93.154,11.123,92.48,11.402,91.701,11.402z"/>
	<path fill="#20407A" d="M97.402,5.701c-0.789,0-1.461-0.279-2.018-0.834c-0.555-0.555-0.832-1.229-0.832-2.018
		c0.779,0,1.451,0.279,2.016,0.834C97.125,4.24,97.402,4.912,97.402,5.701z"/>
	<path fill="#20407A" d="M97.402,8.551c-0.789,0-1.461-0.277-2.018-0.832c-0.555-0.557-0.832-1.229-0.832-2.018
		c0.779,0,1.451,0.277,2.016,0.832C97.125,7.09,97.402,7.762,97.402,8.551z"/>
</g>
</svg>
