<?xml version="1.0" encoding="utf-8"?>
<!-- Generator: Adobe Illustrator 14.0.0, SVG Export Plug-In . SVG Version: 6.00 Build 43363)  -->
<!DOCTYPE svg PUBLIC "-//W3C//DTD SVG 1.1//EN" "http://www.w3.org/Graphics/SVG/1.1/DTD/svg11.dtd">
<svg version="1.1" id="Layer_1" xmlns="http://www.w3.org/2000/svg" xmlns:xlink="http://www.w3.org/1999/xlink" x="0px" y="0px"
	 width="417.6px" height="792px" viewBox="0 0 417.6 792" enable-background="new 0 0 417.6 792" xml:space="preserve">
<g>
	<g>
		<polygon fill="#8DC63F" points="198.466,90.197 103.133,282.197 265.799,255.531 		"/>
		<polygon fill="#698037" points="117.799,286.864 57.799,389.531 337.133,416.864 245.133,268.197 		"/>
		<polygon fill="#8DC63F" points="87.8,407.197 15.133,570.53 381.8,524.53 316.467,420.53 		"/>
		<polygon fill="#698037" points="57.8,570.863 1.8,697.53 415.8,684.863 353.8,542.197 		"/>
		<polygon fill="#DA9E31" points="195.8,698.197 186.466,790.863 222.467,788.863 214.467,698.863 		"/>
	</g>
	<g>
		<g>
			<g>
				<circle fill="#DA2128" cx="161.113" cy="60.473" r="5.666"/>
				<circle fill="#698037" cx="147.822" cy="61.531" r="2.833"/>
			</g>
			<g>
				<circle fill="#AC161B" cx="238.951" cy="70.183" r="5.666"/>
				<circle fill="#8DC63F" cx="251.575" cy="74.475" r="2.833"/>
			</g>
		</g>
		<g>
			<g>
				<circle fill="#AC161B" cx="179.837" cy="17.045" r="5.667"/>
				<circle fill="#8DC63F" cx="170.089" cy="7.949" r="2.833"/>
			</g>
			<g>
				<circle fill="#DA2128" cx="231.471" cy="23.487" r="5.666"/>
				<circle fill="#698037" cx="243.155" cy="17.064" r="2.833"/>
			</g>
		</g>
		<polygon fill="#DA9E31" points="208.04,1.137 219.487,34.089 253.123,43.34 225.32,64.41 226.916,99.257 198.286,79.326 
			165.637,91.612 175.745,58.225 153.972,30.97 188.849,30.267 		"/>
	</g>
</g>
</svg>
