<?xml version="1.0" encoding="utf-8"?>
<!-- Generator: Adobe Illustrator 14.0.0, SVG Export Plug-In . SVG Version: 6.00 Build 43363)  -->
<!DOCTYPE svg PUBLIC "-//W3C//DTD SVG 1.0//EN" "http://www.w3.org/TR/2001/REC-SVG-20010904/DTD/svg10.dtd">
<svg version="1.0" id="Layer_1" xmlns="http://www.w3.org/2000/svg" xmlns:xlink="http://www.w3.org/1999/xlink" x="0px" y="0px"
	 width="506px" height="64px" viewBox="0 0 506 64" enable-background="new 0 0 506 64" xml:space="preserve">
<g>
	<g>
		<g>
			<path fill="#8CC641" d="M3.913,46.033c-0.972,0-1.8-0.342-2.483-1.025s-1.025-1.512-1.025-2.483c0.96,0,1.781,0.342,2.465,1.026
				C3.564,44.246,3.913,45.073,3.913,46.033z M3.913,39.017c0-0.972,0.342-1.799,1.025-2.482s1.511-1.025,2.482-1.025
				c0,0.971-0.348,1.799-1.043,2.482C5.694,38.675,4.872,39.017,3.913,39.017z M3.913,42.524c0-0.971,0.342-1.799,1.025-2.482
				s1.511-1.025,2.482-1.025c0,0.972-0.348,1.799-1.043,2.482C5.694,42.183,4.872,42.524,3.913,42.524z M3.913,46.033
				c0-0.96,0.342-1.787,1.025-2.482c0.684-0.685,1.511-1.026,2.482-1.026c0,0.972-0.348,1.8-1.043,2.483
				C5.694,45.691,4.872,46.033,3.913,46.033z M10.93,35.509c-0.972,0-1.8-0.342-2.483-1.025C7.763,33.799,7.421,32.972,7.421,32
				c0.96,0,1.781,0.342,2.465,1.025C10.581,33.709,10.93,34.537,10.93,35.509z M10.93,39.017c-0.972,0-1.8-0.342-2.483-1.025
				s-1.025-1.512-1.025-2.482c0.96,0,1.781,0.342,2.465,1.025C10.581,37.218,10.93,38.045,10.93,39.017z M10.93,42.524
				c-0.972,0-1.8-0.342-2.483-1.025s-1.025-1.511-1.025-2.482c0.96,0,1.781,0.342,2.465,1.025
				C10.581,40.726,10.93,41.554,10.93,42.524z M10.93,46.033c-0.972,0-1.8-0.342-2.483-1.025s-1.025-1.512-1.025-2.483
				c0.96,0,1.781,0.342,2.465,1.026C10.581,44.246,10.93,45.073,10.93,46.033z M10.93,32c0-0.972,0.342-1.799,1.025-2.482
				s1.511-1.025,2.482-1.025c0,0.972-0.342,1.799-1.025,2.482C12.716,31.658,11.889,32,10.93,32z M10.93,35.509
				c0-0.972,0.342-1.8,1.025-2.483S13.466,32,14.438,32c0,0.972-0.342,1.799-1.025,2.483C12.716,35.167,11.889,35.509,10.93,35.509z
				 M10.93,39.017c0-0.972,0.342-1.799,1.025-2.482s1.511-1.025,2.482-1.025c0,0.971-0.342,1.799-1.025,2.482
				C12.716,38.675,11.889,39.017,10.93,39.017z M10.93,42.524c0-0.971,0.342-1.799,1.025-2.482s1.511-1.025,2.482-1.025
				c0,0.972-0.342,1.799-1.025,2.482C12.716,42.183,11.889,42.524,10.93,42.524z M10.93,46.033c0-0.96,0.342-1.787,1.025-2.482
				c0.684-0.685,1.511-1.026,2.482-1.026c0,0.972-0.342,1.8-1.025,2.483C12.716,45.691,11.889,46.033,10.93,46.033z M17.945,32
				c-0.971,0-1.799-0.342-2.482-1.025s-1.025-1.511-1.025-2.482c0.959,0,1.787,0.342,2.482,1.025
				C17.604,30.201,17.945,31.028,17.945,32z M17.945,35.509c-0.971,0-1.799-0.342-2.482-1.025c-0.684-0.685-1.025-1.512-1.025-2.483
				c0.959,0,1.787,0.342,2.482,1.025C17.604,33.709,17.945,34.537,17.945,35.509z M17.945,39.017c-0.971,0-1.799-0.342-2.482-1.025
				s-1.025-1.512-1.025-2.482c0.959,0,1.787,0.342,2.482,1.025C17.604,37.218,17.945,38.045,17.945,39.017z M17.945,42.524
				c-0.971,0-1.799-0.342-2.482-1.025s-1.025-1.511-1.025-2.482c0.959,0,1.787,0.342,2.482,1.025
				C17.604,40.726,17.945,41.554,17.945,42.524z M17.945,46.033c-0.971,0-1.799-0.342-2.482-1.025s-1.025-1.512-1.025-2.483
				c0.959,0,1.787,0.342,2.482,1.026C17.604,44.246,17.945,45.073,17.945,46.033z M17.945,32c0-0.972,0.342-1.799,1.025-2.482
				c0.685-0.684,1.512-1.025,2.483-1.025c0,0.972-0.342,1.799-1.025,2.482C19.732,31.658,18.905,32,17.945,32z M17.945,35.509
				c0-0.972,0.342-1.8,1.025-2.483C19.655,32.342,20.482,32,21.454,32c0,0.972-0.342,1.799-1.025,2.483
				C19.732,35.167,18.905,35.509,17.945,35.509z M17.945,39.017c0-0.972,0.342-1.799,1.025-2.482
				c0.685-0.684,1.512-1.025,2.483-1.025c0,0.971-0.342,1.799-1.025,2.482C19.732,38.675,18.905,39.017,17.945,39.017z
				 M17.945,42.524c0-0.971,0.342-1.799,1.025-2.482c0.685-0.684,1.512-1.025,2.483-1.025c0,0.972-0.342,1.799-1.025,2.482
				C19.732,42.183,18.905,42.524,17.945,42.524z M17.945,46.033c0-0.96,0.342-1.787,1.025-2.482
				c0.685-0.685,1.512-1.026,2.483-1.026c0,0.972-0.342,1.8-1.025,2.483C19.732,45.691,18.905,46.033,17.945,46.033z M24.962,28.492
				c-0.972,0-1.799-0.342-2.482-1.025s-1.025-1.512-1.025-2.483c0.972,0,1.799,0.342,2.482,1.025S24.962,27.521,24.962,28.492z
				 M24.962,32c-0.972,0-1.799-0.342-2.482-1.025s-1.025-1.511-1.025-2.482c0.972,0,1.799,0.342,2.482,1.025
				S24.962,31.028,24.962,32z M24.962,35.509c-0.972,0-1.799-0.342-2.482-1.025c-0.684-0.685-1.025-1.512-1.025-2.483
				c0.972,0,1.799,0.342,2.482,1.025S24.962,34.537,24.962,35.509z M24.962,39.017c-0.972,0-1.799-0.342-2.482-1.025
				s-1.025-1.512-1.025-2.482c0.972,0,1.799,0.342,2.482,1.025S24.962,38.045,24.962,39.017z M24.962,42.524
				c-0.972,0-1.799-0.342-2.482-1.025s-1.025-1.511-1.025-2.482c0.972,0,1.799,0.342,2.482,1.025S24.962,41.554,24.962,42.524z
				 M24.962,46.033c-0.972,0-1.799-0.342-2.482-1.025s-1.025-1.512-1.025-2.483c0.972,0,1.799,0.342,2.482,1.026
				C24.62,44.246,24.962,45.073,24.962,46.033z M24.962,49.541c-0.972,0-1.799-0.342-2.482-1.025s-1.025-1.511-1.025-2.482
				c0.972,0,1.799,0.342,2.482,1.025C24.62,47.754,24.962,48.582,24.962,49.541z M24.962,28.492c0-0.972,0.342-1.8,1.025-2.483
				s1.512-1.025,2.483-1.025c0,0.972-0.342,1.8-1.025,2.483C26.761,28.15,25.934,28.492,24.962,28.492z M24.962,32
				c0-0.972,0.342-1.799,1.025-2.482s1.512-1.025,2.483-1.025c0,0.972-0.342,1.799-1.025,2.482C26.761,31.658,25.934,32,24.962,32z
				 M24.962,35.509c0-0.972,0.342-1.8,1.025-2.483S27.499,32,28.471,32c0,0.972-0.342,1.799-1.025,2.483
				C26.761,35.167,25.934,35.509,24.962,35.509z M24.962,39.017c0-0.972,0.342-1.799,1.025-2.482s1.512-1.025,2.483-1.025
				c0,0.971-0.342,1.799-1.025,2.482C26.761,38.675,25.934,39.017,24.962,39.017z M24.962,42.524c0-0.971,0.342-1.799,1.025-2.482
				s1.512-1.025,2.483-1.025c0,0.972-0.342,1.799-1.025,2.482C26.761,42.183,25.934,42.524,24.962,42.524z M24.962,46.033
				c0-0.96,0.342-1.787,1.025-2.482c0.684-0.685,1.512-1.026,2.483-1.026c0,0.972-0.342,1.8-1.025,2.483
				C26.761,45.691,25.934,46.033,24.962,46.033z M24.962,49.541c0-0.959,0.342-1.787,1.025-2.482
				c0.684-0.684,1.512-1.025,2.483-1.025c0,0.972-0.342,1.799-1.025,2.482C26.761,49.199,25.934,49.541,24.962,49.541z
				 M31.979,28.492c-0.971,0-1.799-0.342-2.482-1.025s-1.025-1.512-1.025-2.483c0.971,0,1.799,0.342,2.482,1.025
				S31.979,27.521,31.979,28.492z M31.979,32c-0.971,0-1.799-0.342-2.482-1.025s-1.025-1.511-1.025-2.482
				c0.971,0,1.799,0.342,2.482,1.025S31.979,31.028,31.979,32z M31.979,35.509c-0.971,0-1.799-0.342-2.482-1.025
				c-0.684-0.685-1.025-1.512-1.025-2.483c0.971,0,1.799,0.342,2.482,1.025S31.979,34.537,31.979,35.509z M31.979,39.017
				c-0.971,0-1.799-0.342-2.482-1.025s-1.025-1.512-1.025-2.482c0.971,0,1.799,0.342,2.482,1.025S31.979,38.045,31.979,39.017z
				 M31.979,42.524c-0.971,0-1.799-0.342-2.482-1.025s-1.025-1.511-1.025-2.482c0.971,0,1.799,0.342,2.482,1.025
				S31.979,41.554,31.979,42.524z M31.979,46.033c-0.971,0-1.799-0.342-2.482-1.025s-1.025-1.512-1.025-2.483
				c0.971,0,1.799,0.342,2.482,1.026C31.637,44.246,31.979,45.073,31.979,46.033z M31.979,49.541c-0.971,0-1.799-0.342-2.482-1.025
				s-1.025-1.511-1.025-2.482c0.971,0,1.799,0.342,2.482,1.025C31.637,47.754,31.979,48.582,31.979,49.541z M31.979,28.492
				c0-0.972,0.342-1.8,1.025-2.483s1.512-1.025,2.484-1.025c0,0.972-0.344,1.8-1.027,2.483S32.951,28.492,31.979,28.492z M31.979,32
				c0-0.972,0.342-1.799,1.025-2.482s1.512-1.025,2.484-1.025c0,0.972-0.344,1.799-1.027,2.482S32.951,32,31.979,32z M31.979,35.509
				c0-0.972,0.342-1.8,1.025-2.483S34.516,32,35.488,32c0,0.972-0.344,1.799-1.027,2.483C33.777,35.167,32.951,35.509,31.979,35.509
				z M31.979,39.017c0-0.972,0.342-1.799,1.025-2.482s1.512-1.025,2.484-1.025c0,0.971-0.344,1.799-1.027,2.482
				S32.951,39.017,31.979,39.017z M31.979,42.524c0-0.971,0.342-1.799,1.025-2.482s1.512-1.025,2.484-1.025
				c0,0.972-0.344,1.799-1.027,2.482S32.951,42.524,31.979,42.524z M31.979,46.033c0-0.96,0.342-1.787,1.025-2.482
				c0.684-0.685,1.512-1.026,2.484-1.026c0,0.972-0.344,1.8-1.027,2.483S32.951,46.033,31.979,46.033z M31.979,49.541
				c0-0.959,0.342-1.787,1.025-2.482c0.684-0.684,1.512-1.025,2.484-1.025c0,0.972-0.344,1.799-1.027,2.482
				S32.951,49.541,31.979,49.541z M38.996,32c-0.973,0-1.799-0.342-2.482-1.025s-1.025-1.511-1.025-2.482
				c0.971,0,1.799,0.342,2.482,1.025S38.996,31.028,38.996,32z M38.996,35.509c-0.973,0-1.799-0.342-2.482-1.025
				c-0.684-0.685-1.025-1.512-1.025-2.483c0.971,0,1.799,0.342,2.482,1.025S38.996,34.537,38.996,35.509z M38.996,39.017
				c-0.973,0-1.799-0.342-2.482-1.025s-1.025-1.512-1.025-2.482c0.971,0,1.799,0.342,2.482,1.025S38.996,38.045,38.996,39.017z
				 M38.996,42.524c-0.973,0-1.799-0.342-2.482-1.025s-1.025-1.511-1.025-2.482c0.971,0,1.799,0.342,2.482,1.025
				S38.996,41.554,38.996,42.524z M38.996,46.033c-0.973,0-1.799-0.342-2.482-1.025s-1.025-1.512-1.025-2.483
				c0.971,0,1.799,0.342,2.482,1.026C38.654,44.246,38.996,45.073,38.996,46.033z M38.996,32c0-0.972,0.342-1.799,1.025-2.482
				s1.512-1.025,2.482-1.025c0,0.972-0.342,1.799-1.025,2.482S39.967,32,38.996,32z M38.996,35.509c0-0.972,0.342-1.8,1.025-2.483
				S41.533,32,42.504,32c0,0.972-0.342,1.799-1.025,2.483C40.795,35.167,39.967,35.509,38.996,35.509z M38.996,39.017
				c0-0.972,0.342-1.799,1.025-2.482s1.512-1.025,2.482-1.025c0,0.971-0.342,1.799-1.025,2.482S39.967,39.017,38.996,39.017z
				 M38.996,42.524c0-0.971,0.342-1.799,1.025-2.482s1.512-1.025,2.482-1.025c0,0.972-0.342,1.799-1.025,2.482
				S39.967,42.524,38.996,42.524z M38.996,46.033c0-0.96,0.342-1.787,1.025-2.482c0.684-0.685,1.512-1.026,2.482-1.026
				c0,0.972-0.342,1.8-1.025,2.483S39.967,46.033,38.996,46.033z M46.012,32c-0.971,0-1.799-0.342-2.482-1.025
				s-1.025-1.511-1.025-2.482c0.971,0,1.799,0.342,2.482,1.025S46.012,31.028,46.012,32z M46.012,35.509
				c-0.971,0-1.799-0.342-2.482-1.025c-0.684-0.685-1.025-1.512-1.025-2.483c0.971,0,1.799,0.342,2.482,1.025
				S46.012,34.537,46.012,35.509z M46.012,39.017c-0.971,0-1.799-0.342-2.482-1.025s-1.025-1.512-1.025-2.482
				c0.971,0,1.799,0.342,2.482,1.025S46.012,38.045,46.012,39.017z M46.012,42.524c-0.971,0-1.799-0.342-2.482-1.025
				s-1.025-1.511-1.025-2.482c0.971,0,1.799,0.342,2.482,1.025S46.012,41.554,46.012,42.524z M46.012,46.033
				c-0.971,0-1.799-0.342-2.482-1.025s-1.025-1.512-1.025-2.483c0.971,0,1.799,0.342,2.482,1.026
				C45.67,44.246,46.012,45.073,46.012,46.033z M46.012,35.509c0-0.972,0.342-1.8,1.025-2.483S48.549,32,49.52,32
				c0,0.972-0.342,1.799-1.025,2.483C47.811,35.167,46.984,35.509,46.012,35.509z M46.012,39.017c0-0.972,0.342-1.799,1.025-2.482
				s1.512-1.025,2.482-1.025c0,0.971-0.342,1.799-1.025,2.482S46.984,39.017,46.012,39.017z M46.012,42.524
				c0-0.971,0.342-1.799,1.025-2.482s1.512-1.025,2.482-1.025c0,0.972-0.342,1.799-1.025,2.482S46.984,42.524,46.012,42.524z
				 M46.012,46.033c0-0.96,0.342-1.787,1.025-2.482c0.684-0.685,1.512-1.026,2.482-1.026c0,0.972-0.342,1.8-1.025,2.483
				S46.984,46.033,46.012,46.033z M53.027,39.017c-0.971,0-1.799-0.342-2.482-1.025s-1.025-1.512-1.025-2.482
				c0.973,0,1.799,0.342,2.482,1.025S53.027,38.045,53.027,39.017z M53.027,42.524c-0.971,0-1.799-0.342-2.482-1.025
				s-1.025-1.511-1.025-2.482c0.973,0,1.799,0.342,2.482,1.025S53.027,41.554,53.027,42.524z M53.027,46.033
				c-0.971,0-1.799-0.342-2.482-1.025s-1.025-1.512-1.025-2.483c0.973,0,1.799,0.342,2.482,1.026
				C52.686,44.246,53.027,45.073,53.027,46.033z M53.027,46.033c0-0.96,0.342-1.787,1.025-2.482
				c0.697-0.685,1.523-1.026,2.484-1.026c0,0.972-0.342,1.8-1.025,2.483S54,46.033,53.027,46.033z"/>
		</g>
		<path fill="#F04E3E" d="M17.945,53.05c-0.971,0-1.799-0.342-2.482-1.025s-1.025-1.512-1.025-2.483
			c0.959,0,1.787,0.342,2.482,1.025C17.604,51.263,17.945,52.09,17.945,53.05z"/>
		<path fill="#F04E3E" d="M17.945,56.558c-0.971,0-1.799-0.342-2.482-1.025s-1.025-1.511-1.025-2.482
			c0.959,0,1.787,0.348,2.482,1.043C17.604,54.776,17.945,55.599,17.945,56.558z"/>
		<path fill="#F04E3E" d="M17.945,60.066c-0.971,0-1.799-0.342-2.482-1.026c-0.684-0.684-1.025-1.511-1.025-2.482
			c0.959,0,1.787,0.349,2.482,1.044C17.604,58.285,17.945,59.106,17.945,60.066z"/>
		<path fill="#F04E3E" d="M17.945,53.05c0-0.96,0.342-1.787,1.025-2.483c0.685-0.684,1.512-1.025,2.483-1.025
			c0,0.972-0.342,1.8-1.025,2.483C19.732,52.708,18.905,53.05,17.945,53.05z"/>
		<path fill="#F04E3E" d="M17.945,56.558c0-0.959,0.342-1.781,1.025-2.465c0.685-0.695,1.512-1.043,2.483-1.043
			c0,0.972-0.342,1.799-1.025,2.482C19.732,56.216,18.905,56.558,17.945,56.558z"/>
		<path fill="#F04E3E" d="M17.945,60.066c0-0.96,0.342-1.781,1.025-2.465c0.685-0.695,1.512-1.044,2.483-1.044
			c0,0.972-0.342,1.799-1.025,2.482C19.732,59.725,18.905,60.066,17.945,60.066z"/>
		<path fill="#F04E3E" d="M17.945,63.574c0-0.959,0.342-1.781,1.025-2.465c0.685-0.695,1.512-1.043,2.483-1.043
			c0,0.971-0.342,1.799-1.025,2.482C19.732,63.232,18.905,63.574,17.945,63.574z"/>
		<path fill="#F04E3E" d="M24.962,53.05c-0.972,0-1.799-0.342-2.482-1.025s-1.025-1.512-1.025-2.483
			c0.972,0,1.799,0.342,2.482,1.025C24.62,51.263,24.962,52.09,24.962,53.05z"/>
		<path fill="#F04E3E" d="M24.962,56.558c-0.972,0-1.799-0.342-2.482-1.025s-1.025-1.511-1.025-2.482
			c0.972,0,1.799,0.348,2.482,1.043C24.62,54.776,24.962,55.599,24.962,56.558z"/>
		<path fill="#F04E3E" d="M24.962,60.066c-0.972,0-1.799-0.342-2.482-1.026c-0.684-0.684-1.025-1.511-1.025-2.482
			c0.972,0,1.799,0.349,2.482,1.044C24.62,58.285,24.962,59.106,24.962,60.066z"/>
		<path fill="#F04E3E" d="M24.962,63.574c-0.972,0-1.799-0.342-2.482-1.025s-1.025-1.512-1.025-2.482
			c0.972,0,1.799,0.348,2.482,1.043C24.62,61.793,24.962,62.615,24.962,63.574z"/>
		<path fill="#F04E3E" d="M24.962,53.05c0-0.96,0.342-1.787,1.025-2.483c0.684-0.684,1.512-1.025,2.483-1.025
			c0,0.972-0.342,1.8-1.025,2.483C26.761,52.708,25.934,53.05,24.962,53.05z"/>
		<path fill="#F04E3E" d="M24.962,56.558c0-0.959,0.342-1.781,1.025-2.465c0.684-0.695,1.512-1.043,2.483-1.043
			c0,0.972-0.342,1.799-1.025,2.482C26.761,56.216,25.934,56.558,24.962,56.558z"/>
		<path fill="#F04E3E" d="M24.962,60.066c0-0.96,0.342-1.781,1.025-2.465c0.684-0.695,1.512-1.044,2.483-1.044
			c0,0.972-0.342,1.799-1.025,2.482C26.761,59.725,25.934,60.066,24.962,60.066z"/>
		<path fill="#F04E3E" d="M24.962,63.574c0-0.959,0.342-1.781,1.025-2.465c0.684-0.695,1.512-1.043,2.483-1.043
			c0,0.971-0.342,1.799-1.025,2.482C26.761,63.232,25.934,63.574,24.962,63.574z"/>
		<path fill="#F04E3E" d="M31.979,53.05c-0.971,0-1.799-0.342-2.482-1.025s-1.025-1.512-1.025-2.483
			c0.971,0,1.799,0.342,2.482,1.025C31.637,51.263,31.979,52.09,31.979,53.05z"/>
		<path fill="#F04E3E" d="M31.979,56.558c-0.971,0-1.799-0.342-2.482-1.025s-1.025-1.511-1.025-2.482
			c0.971,0,1.799,0.348,2.482,1.043C31.637,54.776,31.979,55.599,31.979,56.558z"/>
		<path fill="#F04E3E" d="M31.979,60.066c-0.971,0-1.799-0.342-2.482-1.026c-0.684-0.684-1.025-1.511-1.025-2.482
			c0.971,0,1.799,0.349,2.482,1.044C31.637,58.285,31.979,59.106,31.979,60.066z"/>
		<path fill="#F04E3E" d="M31.979,63.574c-0.971,0-1.799-0.342-2.482-1.025s-1.025-1.512-1.025-2.482
			c0.971,0,1.799,0.348,2.482,1.043C31.637,61.793,31.979,62.615,31.979,63.574z"/>
		<path fill="#F04E3E" d="M31.979,53.05c0-0.96,0.342-1.787,1.025-2.483c0.684-0.684,1.512-1.025,2.484-1.025
			c0,0.972-0.344,1.8-1.027,2.483S32.951,53.05,31.979,53.05z"/>
		<path fill="#F04E3E" d="M31.979,56.558c0-0.959,0.342-1.781,1.025-2.465c0.684-0.695,1.512-1.043,2.484-1.043
			c0,0.972-0.344,1.799-1.027,2.482S32.951,56.558,31.979,56.558z"/>
		<path fill="#F04E3E" d="M31.979,60.066c0-0.96,0.342-1.781,1.025-2.465c0.684-0.695,1.512-1.044,2.484-1.044
			c0,0.972-0.344,1.799-1.027,2.482C33.777,59.725,32.951,60.066,31.979,60.066z"/>
		<path fill="#F04E3E" d="M31.979,63.574c0-0.959,0.342-1.781,1.025-2.465c0.684-0.695,1.512-1.043,2.484-1.043
			c0,0.971-0.344,1.799-1.027,2.482S32.951,63.574,31.979,63.574z"/>
		<path fill="#F04E3E" d="M38.996,53.05c-0.973,0-1.799-0.342-2.482-1.025s-1.025-1.512-1.025-2.483
			c0.971,0,1.799,0.342,2.482,1.025C38.654,51.263,38.996,52.09,38.996,53.05z"/>
		<path fill="#F04E3E" d="M38.996,56.558c-0.973,0-1.799-0.342-2.482-1.025s-1.025-1.511-1.025-2.482
			c0.971,0,1.799,0.348,2.482,1.043C38.654,54.776,38.996,55.599,38.996,56.558z"/>
		<path fill="#F04E3E" d="M38.996,60.066c-0.973,0-1.799-0.342-2.482-1.026c-0.684-0.684-1.025-1.511-1.025-2.482
			c0.971,0,1.799,0.349,2.482,1.044C38.654,58.285,38.996,59.106,38.996,60.066z"/>
		<path fill="#F04E3E" d="M38.996,63.574c-0.973,0-1.799-0.342-2.482-1.025s-1.025-1.512-1.025-2.482
			c0.971,0,1.799,0.348,2.482,1.043C38.654,61.793,38.996,62.615,38.996,63.574z"/>
		<path fill="#F04E3E" d="M38.996,53.05c0-0.96,0.342-1.787,1.025-2.483c0.684-0.684,1.512-1.025,2.482-1.025
			c0,0.972-0.342,1.8-1.025,2.483S39.967,53.05,38.996,53.05z"/>
		<path fill="#F04E3E" d="M38.996,56.558c0-0.959,0.342-1.781,1.025-2.465c0.684-0.695,1.512-1.043,2.482-1.043
			c0,0.972-0.342,1.799-1.025,2.482S39.967,56.558,38.996,56.558z"/>
		<path fill="#F04E3E" d="M38.996,60.066c0-0.96,0.342-1.781,1.025-2.465c0.684-0.695,1.512-1.044,2.482-1.044
			c0,0.972-0.342,1.799-1.025,2.482C40.795,59.725,39.967,60.066,38.996,60.066z"/>
		<path fill="#8CC641" d="M10.93,24.983c0-0.972,0.342-1.799,1.025-2.482s1.511-1.025,2.482-1.025c0,0.972-0.342,1.799-1.025,2.482
			C12.716,24.642,11.889,24.983,10.93,24.983z"/>
		<path fill="#8CC641" d="M17.945,21.476c-0.971,0-1.799-0.342-2.482-1.025s-1.025-1.512-1.025-2.483
			c0.959,0,1.787,0.342,2.482,1.026C17.604,19.677,17.945,20.504,17.945,21.476z"/>
		<path fill="#8CC641" d="M17.945,24.983c-0.971,0-1.799-0.342-2.482-1.025s-1.025-1.511-1.025-2.482
			c0.959,0,1.787,0.342,2.482,1.025C17.604,23.185,17.945,24.012,17.945,24.983z"/>
		<path fill="#8CC641" d="M17.945,10.951c0-0.972,0.342-1.8,1.025-2.483c0.685-0.684,1.512-1.025,2.483-1.025
			c0,0.96-0.342,1.787-1.025,2.483C19.732,10.609,18.905,10.951,17.945,10.951z"/>
		<path fill="#8CC641" d="M17.945,17.967c0-0.971,0.342-1.799,1.025-2.482c0.685-0.684,1.512-1.025,2.483-1.025
			c0,0.972-0.342,1.799-1.025,2.482C19.732,17.625,18.905,17.967,17.945,17.967z"/>
		<path fill="#8CC641" d="M17.945,21.476c0-0.972,0.342-1.799,1.025-2.482c0.685-0.685,1.512-1.026,2.483-1.026
			c0,0.972-0.342,1.8-1.025,2.483C19.732,21.134,18.905,21.476,17.945,21.476z"/>
		<path fill="#8CC641" d="M17.945,24.983c0-0.972,0.342-1.799,1.025-2.482c0.685-0.684,1.512-1.025,2.483-1.025
			c0,0.972-0.342,1.799-1.025,2.482C19.732,24.642,18.905,24.983,17.945,24.983z"/>
		<path fill="#8CC641" d="M24.962,7.442c-0.972,0-1.799-0.342-2.482-1.025c-0.684-0.695-1.025-1.522-1.025-2.482
			c0.972,0,1.799,0.342,2.482,1.025S24.962,6.471,24.962,7.442z"/>
		<path fill="#8CC641" d="M24.962,10.951c-0.972,0-1.799-0.342-2.482-1.025c-0.684-0.696-1.025-1.523-1.025-2.483
			c0.972,0,1.799,0.342,2.482,1.025S24.962,9.979,24.962,10.951z"/>
		<path fill="#8CC641" d="M24.962,14.459c-0.972,0-1.799-0.342-2.482-1.025s-1.025-1.512-1.025-2.482
			c0.972,0,1.799,0.342,2.482,1.025S24.962,13.487,24.962,14.459z"/>
		<path fill="#8CC641" d="M24.962,17.967c-0.972,0-1.799-0.342-2.482-1.025s-1.025-1.511-1.025-2.482
			c0.972,0,1.799,0.342,2.482,1.025S24.962,16.996,24.962,17.967z"/>
		<path fill="#8CC641" d="M24.962,21.476c-0.972,0-1.799-0.342-2.482-1.025s-1.025-1.512-1.025-2.483
			c0.972,0,1.799,0.342,2.482,1.026C24.62,19.677,24.962,20.504,24.962,21.476z"/>
		<path fill="#8CC641" d="M24.962,24.983c-0.972,0-1.799-0.342-2.482-1.025s-1.025-1.511-1.025-2.482
			c0.972,0,1.799,0.342,2.482,1.025S24.962,24.012,24.962,24.983z"/>
		<path fill="#8CC641" d="M24.962,3.935c0-0.972,0.342-1.8,1.025-2.483s1.512-1.025,2.483-1.025c0,0.96-0.342,1.788-1.025,2.483
			C26.761,3.593,25.934,3.935,24.962,3.935z"/>
		<path fill="#8CC641" d="M24.962,7.442c0-0.972,0.342-1.799,1.025-2.482s1.512-1.025,2.483-1.025c0,0.96-0.342,1.787-1.025,2.482
			C26.761,7.101,25.934,7.442,24.962,7.442z"/>
		<path fill="#8CC641" d="M24.962,10.951c0-0.972,0.342-1.8,1.025-2.483s1.512-1.025,2.483-1.025c0,0.96-0.342,1.787-1.025,2.483
			C26.761,10.609,25.934,10.951,24.962,10.951z"/>
		<path fill="#8CC641" d="M24.962,14.459c0-0.972,0.342-1.799,1.025-2.482s1.512-1.025,2.483-1.025c0,0.971-0.342,1.799-1.025,2.482
			C26.761,14.117,25.934,14.459,24.962,14.459z"/>
		<path fill="#8CC641" d="M24.962,17.967c0-0.971,0.342-1.799,1.025-2.482s1.512-1.025,2.483-1.025c0,0.972-0.342,1.799-1.025,2.482
			C26.761,17.625,25.934,17.967,24.962,17.967z"/>
		<path fill="#8CC641" d="M24.962,21.476c0-0.972,0.342-1.799,1.025-2.482c0.684-0.685,1.512-1.026,2.483-1.026
			c0,0.972-0.342,1.8-1.025,2.483C26.761,21.134,25.934,21.476,24.962,21.476z"/>
		<path fill="#8CC641" d="M24.962,24.983c0-0.972,0.342-1.799,1.025-2.482s1.512-1.025,2.483-1.025c0,0.972-0.342,1.799-1.025,2.482
			C26.761,24.642,25.934,24.983,24.962,24.983z"/>
		<path fill="#8CC641" d="M31.979,3.935c-0.971,0-1.799-0.342-2.482-1.025c-0.684-0.695-1.025-1.523-1.025-2.483
			c0.971,0,1.799,0.342,2.482,1.025S31.979,2.963,31.979,3.935z"/>
		<path fill="#8CC641" d="M31.979,7.442c-0.971,0-1.799-0.342-2.482-1.025c-0.684-0.695-1.025-1.522-1.025-2.482
			c0.971,0,1.799,0.342,2.482,1.025S31.979,6.471,31.979,7.442z"/>
		<path fill="#8CC641" d="M31.979,10.951c-0.971,0-1.799-0.342-2.482-1.025c-0.684-0.696-1.025-1.523-1.025-2.483
			c0.971,0,1.799,0.342,2.482,1.025S31.979,9.979,31.979,10.951z"/>
		<path fill="#8CC641" d="M31.979,14.459c-0.971,0-1.799-0.342-2.482-1.025s-1.025-1.512-1.025-2.482
			c0.971,0,1.799,0.342,2.482,1.025S31.979,13.487,31.979,14.459z"/>
		<path fill="#8CC641" d="M31.979,17.967c-0.971,0-1.799-0.342-2.482-1.025s-1.025-1.511-1.025-2.482
			c0.971,0,1.799,0.342,2.482,1.025S31.979,16.996,31.979,17.967z"/>
		<path fill="#8CC641" d="M31.979,21.476c-0.971,0-1.799-0.342-2.482-1.025s-1.025-1.512-1.025-2.483
			c0.971,0,1.799,0.342,2.482,1.026C31.637,19.677,31.979,20.504,31.979,21.476z"/>
		<path fill="#8CC641" d="M31.979,24.983c-0.971,0-1.799-0.342-2.482-1.025s-1.025-1.511-1.025-2.482
			c0.971,0,1.799,0.342,2.482,1.025S31.979,24.012,31.979,24.983z"/>
		<path fill="#8CC641" d="M31.979,7.442c0-0.972,0.342-1.799,1.025-2.482s1.512-1.025,2.484-1.025c0,0.96-0.344,1.787-1.027,2.482
			C33.777,7.101,32.951,7.442,31.979,7.442z"/>
		<path fill="#8CC641" d="M31.979,10.951c0-0.972,0.342-1.8,1.025-2.483s1.512-1.025,2.484-1.025c0,0.96-0.344,1.787-1.027,2.483
			C33.777,10.609,32.951,10.951,31.979,10.951z"/>
		<path fill="#8CC641" d="M31.979,14.459c0-0.972,0.342-1.799,1.025-2.482s1.512-1.025,2.484-1.025c0,0.971-0.344,1.799-1.027,2.482
			S32.951,14.459,31.979,14.459z"/>
		<path fill="#8CC641" d="M31.979,17.967c0-0.971,0.342-1.799,1.025-2.482s1.512-1.025,2.484-1.025c0,0.972-0.344,1.799-1.027,2.482
			S32.951,17.967,31.979,17.967z"/>
		<path fill="#8CC641" d="M31.979,21.476c0-0.972,0.342-1.799,1.025-2.482c0.684-0.685,1.512-1.026,2.484-1.026
			c0,0.972-0.344,1.8-1.027,2.483S32.951,21.476,31.979,21.476z"/>
		<path fill="#8CC641" d="M31.979,24.983c0-0.972,0.342-1.799,1.025-2.482s1.512-1.025,2.484-1.025c0,0.972-0.344,1.799-1.027,2.482
			S32.951,24.983,31.979,24.983z"/>
		<path fill="#8CC641" d="M38.996,10.951c-0.973,0-1.799-0.342-2.482-1.025c-0.684-0.696-1.025-1.523-1.025-2.483
			c0.971,0,1.799,0.342,2.482,1.025S38.996,9.979,38.996,10.951z"/>
		<path fill="#8CC641" d="M38.996,17.967c-0.973,0-1.799-0.342-2.482-1.025s-1.025-1.511-1.025-2.482
			c0.971,0,1.799,0.342,2.482,1.025S38.996,16.996,38.996,17.967z"/>
		<path fill="#8CC641" d="M38.996,21.476c-0.973,0-1.799-0.342-2.482-1.025s-1.025-1.512-1.025-2.483
			c0.971,0,1.799,0.342,2.482,1.026C38.654,19.677,38.996,20.504,38.996,21.476z"/>
		<path fill="#8CC641" d="M38.996,24.983c-0.973,0-1.799-0.342-2.482-1.025s-1.025-1.511-1.025-2.482
			c0.971,0,1.799,0.342,2.482,1.025S38.996,24.012,38.996,24.983z"/>
		<path fill="#8CC641" d="M38.996,21.476c0-0.972,0.342-1.799,1.025-2.482c0.684-0.685,1.512-1.026,2.482-1.026
			c0,0.972-0.342,1.8-1.025,2.483S39.967,21.476,38.996,21.476z"/>
		<path fill="#8CC641" d="M38.996,24.983c0-0.972,0.342-1.799,1.025-2.482s1.512-1.025,2.482-1.025c0,0.972-0.342,1.799-1.025,2.482
			S39.967,24.983,38.996,24.983z"/>
		<path fill="#8CC641" d="M46.012,24.983c-0.971,0-1.799-0.342-2.482-1.025s-1.025-1.511-1.025-2.482
			c0.971,0,1.799,0.342,2.482,1.025S46.012,24.012,46.012,24.983z"/>
	</g>
	<g>
		<g>
			<path fill="#0E9347" d="M228.442,46.033c-0.972,0-1.8-0.342-2.483-1.025s-1.025-1.512-1.025-2.483
				c0.96,0,1.781,0.342,2.465,1.026C228.094,44.246,228.442,45.073,228.442,46.033z M228.442,39.017
				c0-0.972,0.342-1.799,1.025-2.482s1.511-1.025,2.483-1.025c0,0.971-0.349,1.799-1.044,2.482
				C230.224,38.675,229.402,39.017,228.442,39.017z M228.442,42.524c0-0.971,0.342-1.799,1.025-2.482s1.511-1.025,2.483-1.025
				c0,0.972-0.349,1.799-1.044,2.482C230.224,42.183,229.402,42.524,228.442,42.524z M228.442,46.033
				c0-0.96,0.342-1.787,1.025-2.482c0.684-0.685,1.511-1.026,2.483-1.026c0,0.972-0.349,1.8-1.044,2.483
				C230.224,45.691,229.402,46.033,228.442,46.033z M235.459,35.509c-0.972,0-1.799-0.342-2.482-1.025
				c-0.684-0.685-1.025-1.512-1.025-2.483c0.959,0,1.78,0.342,2.465,1.025C235.111,33.709,235.459,34.537,235.459,35.509z
				 M235.459,39.017c-0.972,0-1.799-0.342-2.482-1.025s-1.025-1.512-1.025-2.482c0.959,0,1.78,0.342,2.465,1.025
				C235.111,37.218,235.459,38.045,235.459,39.017z M235.459,42.524c-0.972,0-1.799-0.342-2.482-1.025s-1.025-1.511-1.025-2.482
				c0.959,0,1.78,0.342,2.465,1.025C235.111,40.726,235.459,41.554,235.459,42.524z M235.459,46.033
				c-0.972,0-1.799-0.342-2.482-1.025s-1.025-1.512-1.025-2.483c0.959,0,1.78,0.342,2.465,1.026
				C235.111,44.246,235.459,45.073,235.459,46.033z M235.459,32c0-0.972,0.342-1.799,1.025-2.482s1.512-1.025,2.482-1.025
				c0,0.972-0.342,1.799-1.025,2.482C237.246,31.658,236.418,32,235.459,32z M235.459,35.509c0-0.972,0.342-1.8,1.025-2.483
				S237.996,32,238.967,32c0,0.972-0.342,1.799-1.025,2.483C237.246,35.167,236.418,35.509,235.459,35.509z M235.459,39.017
				c0-0.972,0.342-1.799,1.025-2.482s1.512-1.025,2.482-1.025c0,0.971-0.342,1.799-1.025,2.482
				C237.246,38.675,236.418,39.017,235.459,39.017z M235.459,42.524c0-0.971,0.342-1.799,1.025-2.482s1.512-1.025,2.482-1.025
				c0,0.972-0.342,1.799-1.025,2.482C237.246,42.183,236.418,42.524,235.459,42.524z M235.459,46.033
				c0-0.96,0.342-1.787,1.025-2.482c0.684-0.685,1.512-1.026,2.482-1.026c0,0.972-0.342,1.8-1.025,2.483
				C237.246,45.691,236.418,46.033,235.459,46.033z M242.475,32c-0.971,0-1.799-0.342-2.482-1.025s-1.025-1.511-1.025-2.482
				c0.959,0,1.787,0.342,2.482,1.025C242.133,30.201,242.475,31.028,242.475,32z M242.475,35.509c-0.971,0-1.799-0.342-2.482-1.025
				c-0.684-0.685-1.025-1.512-1.025-2.483c0.959,0,1.787,0.342,2.482,1.025C242.133,33.709,242.475,34.537,242.475,35.509z
				 M242.475,39.017c-0.971,0-1.799-0.342-2.482-1.025s-1.025-1.512-1.025-2.482c0.959,0,1.787,0.342,2.482,1.025
				C242.133,37.218,242.475,38.045,242.475,39.017z M242.475,42.524c-0.971,0-1.799-0.342-2.482-1.025s-1.025-1.511-1.025-2.482
				c0.959,0,1.787,0.342,2.482,1.025C242.133,40.726,242.475,41.554,242.475,42.524z M242.475,46.033
				c-0.971,0-1.799-0.342-2.482-1.025s-1.025-1.512-1.025-2.483c0.959,0,1.787,0.342,2.482,1.026
				C242.133,44.246,242.475,45.073,242.475,46.033z M242.475,32c0-0.972,0.342-1.799,1.025-2.482
				c0.685-0.684,1.512-1.025,2.483-1.025c0,0.972-0.342,1.799-1.025,2.482C244.262,31.658,243.435,32,242.475,32z M242.475,35.509
				c0-0.972,0.342-1.8,1.025-2.483c0.685-0.684,1.512-1.025,2.483-1.025c0,0.972-0.342,1.799-1.025,2.483
				C244.262,35.167,243.435,35.509,242.475,35.509z M242.475,39.017c0-0.972,0.342-1.799,1.025-2.482
				c0.685-0.684,1.512-1.025,2.483-1.025c0,0.971-0.342,1.799-1.025,2.482C244.262,38.675,243.435,39.017,242.475,39.017z
				 M242.475,42.524c0-0.971,0.342-1.799,1.025-2.482c0.685-0.684,1.512-1.025,2.483-1.025c0,0.972-0.342,1.799-1.025,2.482
				C244.262,42.183,243.435,42.524,242.475,42.524z M242.475,46.033c0-0.96,0.342-1.787,1.025-2.482
				c0.685-0.685,1.512-1.026,2.483-1.026c0,0.972-0.342,1.8-1.025,2.483C244.262,45.691,243.435,46.033,242.475,46.033z
				 M249.492,28.492c-0.973,0-1.8-0.342-2.483-1.025s-1.025-1.512-1.025-2.483c0.972,0,1.8,0.342,2.483,1.025
				S249.492,27.521,249.492,28.492z M249.492,32c-0.973,0-1.8-0.342-2.483-1.025s-1.025-1.511-1.025-2.482
				c0.972,0,1.8,0.342,2.483,1.025S249.492,31.028,249.492,32z M249.492,35.509c-0.973,0-1.8-0.342-2.483-1.025
				c-0.684-0.685-1.025-1.512-1.025-2.483c0.972,0,1.8,0.342,2.483,1.025S249.492,34.537,249.492,35.509z M249.492,39.017
				c-0.973,0-1.8-0.342-2.483-1.025s-1.025-1.512-1.025-2.482c0.972,0,1.8,0.342,2.483,1.025S249.492,38.045,249.492,39.017z
				 M249.492,42.524c-0.973,0-1.8-0.342-2.483-1.025s-1.025-1.511-1.025-2.482c0.972,0,1.8,0.342,2.483,1.025
				S249.492,41.554,249.492,42.524z M249.492,46.033c-0.973,0-1.8-0.342-2.483-1.025s-1.025-1.512-1.025-2.483
				c0.972,0,1.8,0.342,2.483,1.026C249.15,44.246,249.492,45.073,249.492,46.033z M249.492,49.541c-0.973,0-1.8-0.342-2.483-1.025
				s-1.025-1.511-1.025-2.482c0.972,0,1.8,0.342,2.483,1.025C249.15,47.754,249.492,48.582,249.492,49.541z M249.492,28.492
				c0-0.972,0.342-1.8,1.025-2.483s1.511-1.025,2.482-1.025c0,0.972-0.342,1.8-1.025,2.483S250.463,28.492,249.492,28.492z
				 M249.492,32c0-0.972,0.342-1.799,1.025-2.482s1.511-1.025,2.482-1.025c0,0.972-0.342,1.799-1.025,2.482S250.463,32,249.492,32z
				 M249.492,35.509c0-0.972,0.342-1.8,1.025-2.483S252.028,32,253,32c0,0.972-0.342,1.799-1.025,2.483
				C251.291,35.167,250.463,35.509,249.492,35.509z M249.492,39.017c0-0.972,0.342-1.799,1.025-2.482s1.511-1.025,2.482-1.025
				c0,0.971-0.342,1.799-1.025,2.482S250.463,39.017,249.492,39.017z M249.492,42.524c0-0.971,0.342-1.799,1.025-2.482
				s1.511-1.025,2.482-1.025c0,0.972-0.342,1.799-1.025,2.482S250.463,42.524,249.492,42.524z M249.492,46.033
				c0-0.96,0.342-1.787,1.025-2.482c0.684-0.685,1.511-1.026,2.482-1.026c0,0.972-0.342,1.8-1.025,2.483
				S250.463,46.033,249.492,46.033z M249.492,49.541c0-0.959,0.342-1.787,1.025-2.482c0.684-0.684,1.511-1.025,2.482-1.025
				c0,0.972-0.342,1.799-1.025,2.482S250.463,49.541,249.492,49.541z M256.508,28.492c-0.971,0-1.799-0.342-2.482-1.025
				S253,25.955,253,24.983c0.971,0,1.799,0.342,2.482,1.025S256.508,27.521,256.508,28.492z M256.508,32
				c-0.971,0-1.799-0.342-2.482-1.025S253,29.464,253,28.492c0.971,0,1.799,0.342,2.482,1.025S256.508,31.028,256.508,32z
				 M256.508,35.509c-0.971,0-1.799-0.342-2.482-1.025C253.342,33.799,253,32.972,253,32c0.971,0,1.799,0.342,2.482,1.025
				S256.508,34.537,256.508,35.509z M256.508,39.017c-0.971,0-1.799-0.342-2.482-1.025S253,36.479,253,35.509
				c0.971,0,1.799,0.342,2.482,1.025S256.508,38.045,256.508,39.017z M256.508,42.524c-0.971,0-1.799-0.342-2.482-1.025
				S253,39.988,253,39.017c0.971,0,1.799,0.342,2.482,1.025S256.508,41.554,256.508,42.524z M256.508,46.033
				c-0.971,0-1.799-0.342-2.482-1.025S253,43.496,253,42.524c0.971,0,1.799,0.342,2.482,1.026
				C256.166,44.246,256.508,45.073,256.508,46.033z M256.508,49.541c-0.971,0-1.799-0.342-2.482-1.025S253,47.005,253,46.033
				c0.971,0,1.799,0.342,2.482,1.025C256.166,47.754,256.508,48.582,256.508,49.541z M256.508,28.492c0-0.972,0.342-1.8,1.025-2.483
				s1.512-1.025,2.484-1.025c0,0.972-0.344,1.8-1.027,2.483S257.48,28.492,256.508,28.492z M256.508,32
				c0-0.972,0.342-1.799,1.025-2.482s1.512-1.025,2.484-1.025c0,0.972-0.344,1.799-1.027,2.482S257.48,32,256.508,32z
				 M256.508,35.509c0-0.972,0.342-1.8,1.025-2.483S259.045,32,260.018,32c0,0.972-0.344,1.799-1.027,2.483
				C258.307,35.167,257.48,35.509,256.508,35.509z M256.508,39.017c0-0.972,0.342-1.799,1.025-2.482s1.512-1.025,2.484-1.025
				c0,0.971-0.344,1.799-1.027,2.482S257.48,39.017,256.508,39.017z M256.508,42.524c0-0.971,0.342-1.799,1.025-2.482
				s1.512-1.025,2.484-1.025c0,0.972-0.344,1.799-1.027,2.482S257.48,42.524,256.508,42.524z M256.508,46.033
				c0-0.96,0.342-1.787,1.025-2.482c0.684-0.685,1.512-1.026,2.484-1.026c0,0.972-0.344,1.8-1.027,2.483
				S257.48,46.033,256.508,46.033z M256.508,49.541c0-0.959,0.342-1.787,1.025-2.482c0.684-0.684,1.512-1.025,2.484-1.025
				c0,0.972-0.344,1.799-1.027,2.482S257.48,49.541,256.508,49.541z M263.525,32c-0.973,0-1.799-0.342-2.482-1.025
				s-1.025-1.511-1.025-2.482c0.971,0,1.799,0.342,2.482,1.025S263.525,31.028,263.525,32z M263.525,35.509
				c-0.973,0-1.799-0.342-2.482-1.025c-0.684-0.685-1.025-1.512-1.025-2.483c0.971,0,1.799,0.342,2.482,1.025
				S263.525,34.537,263.525,35.509z M263.525,39.017c-0.973,0-1.799-0.342-2.482-1.025s-1.025-1.512-1.025-2.482
				c0.971,0,1.799,0.342,2.482,1.025S263.525,38.045,263.525,39.017z M263.525,42.524c-0.973,0-1.799-0.342-2.482-1.025
				s-1.025-1.511-1.025-2.482c0.971,0,1.799,0.342,2.482,1.025S263.525,41.554,263.525,42.524z M263.525,46.033
				c-0.973,0-1.799-0.342-2.482-1.025s-1.025-1.512-1.025-2.483c0.971,0,1.799,0.342,2.482,1.026
				C263.184,44.246,263.525,45.073,263.525,46.033z M263.525,32c0-0.972,0.342-1.799,1.025-2.482s1.512-1.025,2.482-1.025
				c0,0.972-0.342,1.799-1.025,2.482S264.496,32,263.525,32z M263.525,35.509c0-0.972,0.342-1.8,1.025-2.483S266.063,32,267.033,32
				c0,0.972-0.342,1.799-1.025,2.483C265.324,35.167,264.496,35.509,263.525,35.509z M263.525,39.017
				c0-0.972,0.342-1.799,1.025-2.482s1.512-1.025,2.482-1.025c0,0.971-0.342,1.799-1.025,2.482S264.496,39.017,263.525,39.017z
				 M263.525,42.524c0-0.971,0.342-1.799,1.025-2.482s1.512-1.025,2.482-1.025c0,0.972-0.342,1.799-1.025,2.482
				S264.496,42.524,263.525,42.524z M263.525,46.033c0-0.96,0.342-1.787,1.025-2.482c0.684-0.685,1.512-1.026,2.482-1.026
				c0,0.972-0.342,1.8-1.025,2.483S264.496,46.033,263.525,46.033z M270.541,32c-0.971,0-1.799-0.342-2.482-1.025
				s-1.025-1.511-1.025-2.482c0.971,0,1.799,0.342,2.482,1.025S270.541,31.028,270.541,32z M270.541,35.509
				c-0.971,0-1.799-0.342-2.482-1.025c-0.684-0.685-1.025-1.512-1.025-2.483c0.971,0,1.799,0.342,2.482,1.025
				S270.541,34.537,270.541,35.509z M270.541,39.017c-0.971,0-1.799-0.342-2.482-1.025s-1.025-1.512-1.025-2.482
				c0.971,0,1.799,0.342,2.482,1.025S270.541,38.045,270.541,39.017z M270.541,42.524c-0.971,0-1.799-0.342-2.482-1.025
				s-1.025-1.511-1.025-2.482c0.971,0,1.799,0.342,2.482,1.025S270.541,41.554,270.541,42.524z M270.541,46.033
				c-0.971,0-1.799-0.342-2.482-1.025s-1.025-1.512-1.025-2.483c0.971,0,1.799,0.342,2.482,1.026
				C270.199,44.246,270.541,45.073,270.541,46.033z M270.541,35.509c0-0.972,0.342-1.8,1.025-2.483S273.078,32,274.049,32
				c0,0.972-0.342,1.799-1.025,2.483C272.34,35.167,271.514,35.509,270.541,35.509z M270.541,39.017
				c0-0.972,0.342-1.799,1.025-2.482s1.512-1.025,2.482-1.025c0,0.971-0.342,1.799-1.025,2.482S271.514,39.017,270.541,39.017z
				 M270.541,42.524c0-0.971,0.342-1.799,1.025-2.482s1.512-1.025,2.482-1.025c0,0.972-0.342,1.799-1.025,2.482
				S271.514,42.524,270.541,42.524z M270.541,46.033c0-0.96,0.342-1.787,1.025-2.482c0.684-0.685,1.512-1.026,2.482-1.026
				c0,0.972-0.342,1.8-1.025,2.483S271.514,46.033,270.541,46.033z M277.557,39.017c-0.971,0-1.799-0.342-2.482-1.025
				s-1.025-1.512-1.025-2.482c0.973,0,1.799,0.342,2.482,1.025S277.557,38.045,277.557,39.017z M277.557,42.524
				c-0.971,0-1.799-0.342-2.482-1.025s-1.025-1.511-1.025-2.482c0.973,0,1.799,0.342,2.482,1.025S277.557,41.554,277.557,42.524z
				 M277.557,46.033c-0.971,0-1.799-0.342-2.482-1.025s-1.025-1.512-1.025-2.483c0.973,0,1.799,0.342,2.482,1.026
				C277.215,44.246,277.557,45.073,277.557,46.033z M277.557,46.033c0-0.96,0.342-1.787,1.025-2.482
				c0.697-0.685,1.523-1.026,2.484-1.026c0,0.972-0.342,1.8-1.025,2.483S278.529,46.033,277.557,46.033z"/>
		</g>
		<path fill="#F04E3E" d="M242.475,53.05c-0.971,0-1.799-0.342-2.482-1.025s-1.025-1.512-1.025-2.483
			c0.959,0,1.787,0.342,2.482,1.025C242.133,51.263,242.475,52.09,242.475,53.05z"/>
		<path fill="#F04E3E" d="M242.475,56.558c-0.971,0-1.799-0.342-2.482-1.025s-1.025-1.511-1.025-2.482
			c0.959,0,1.787,0.348,2.482,1.043C242.133,54.776,242.475,55.599,242.475,56.558z"/>
		<path fill="#F04E3E" d="M242.475,60.066c-0.971,0-1.799-0.342-2.482-1.026c-0.684-0.684-1.025-1.511-1.025-2.482
			c0.959,0,1.787,0.349,2.482,1.044C242.133,58.285,242.475,59.106,242.475,60.066z"/>
		<path fill="#F04E3E" d="M242.475,53.05c0-0.96,0.342-1.787,1.025-2.483c0.685-0.684,1.512-1.025,2.483-1.025
			c0,0.972-0.342,1.8-1.025,2.483C244.262,52.708,243.435,53.05,242.475,53.05z"/>
		<path fill="#F04E3E" d="M242.475,56.558c0-0.959,0.342-1.781,1.025-2.465c0.685-0.695,1.512-1.043,2.483-1.043
			c0,0.972-0.342,1.799-1.025,2.482C244.262,56.216,243.435,56.558,242.475,56.558z"/>
		<path fill="#F04E3E" d="M242.475,60.066c0-0.96,0.342-1.781,1.025-2.465c0.685-0.695,1.512-1.044,2.483-1.044
			c0,0.972-0.342,1.799-1.025,2.482C244.262,59.725,243.435,60.066,242.475,60.066z"/>
		<path fill="#F04E3E" d="M242.475,63.574c0-0.959,0.342-1.781,1.025-2.465c0.685-0.695,1.512-1.043,2.483-1.043
			c0,0.971-0.342,1.799-1.025,2.482C244.262,63.232,243.435,63.574,242.475,63.574z"/>
		<path fill="#F04E3E" d="M249.492,53.05c-0.973,0-1.8-0.342-2.483-1.025s-1.025-1.512-1.025-2.483c0.972,0,1.8,0.342,2.483,1.025
			C249.15,51.263,249.492,52.09,249.492,53.05z"/>
		<path fill="#F04E3E" d="M249.492,56.558c-0.973,0-1.8-0.342-2.483-1.025s-1.025-1.511-1.025-2.482c0.972,0,1.8,0.348,2.483,1.043
			C249.15,54.776,249.492,55.599,249.492,56.558z"/>
		<path fill="#F04E3E" d="M249.492,60.066c-0.973,0-1.8-0.342-2.483-1.026c-0.684-0.684-1.025-1.511-1.025-2.482
			c0.972,0,1.8,0.349,2.483,1.044C249.15,58.285,249.492,59.106,249.492,60.066z"/>
		<path fill="#F04E3E" d="M249.492,63.574c-0.973,0-1.8-0.342-2.483-1.025s-1.025-1.512-1.025-2.482c0.972,0,1.8,0.348,2.483,1.043
			C249.15,61.793,249.492,62.615,249.492,63.574z"/>
		<path fill="#F04E3E" d="M249.492,53.05c0-0.96,0.342-1.787,1.025-2.483c0.684-0.684,1.511-1.025,2.482-1.025
			c0,0.972-0.342,1.8-1.025,2.483S250.463,53.05,249.492,53.05z"/>
		<path fill="#F04E3E" d="M249.492,56.558c0-0.959,0.342-1.781,1.025-2.465c0.684-0.695,1.511-1.043,2.482-1.043
			c0,0.972-0.342,1.799-1.025,2.482S250.463,56.558,249.492,56.558z"/>
		<path fill="#F04E3E" d="M249.492,60.066c0-0.96,0.342-1.781,1.025-2.465c0.684-0.695,1.511-1.044,2.482-1.044
			c0,0.972-0.342,1.799-1.025,2.482C251.291,59.725,250.463,60.066,249.492,60.066z"/>
		<path fill="#F04E3E" d="M249.492,63.574c0-0.959,0.342-1.781,1.025-2.465c0.684-0.695,1.511-1.043,2.482-1.043
			c0,0.971-0.342,1.799-1.025,2.482S250.463,63.574,249.492,63.574z"/>
		<path fill="#F04E3E" d="M256.508,53.05c-0.971,0-1.799-0.342-2.482-1.025S253,50.513,253,49.541c0.971,0,1.799,0.342,2.482,1.025
			C256.166,51.263,256.508,52.09,256.508,53.05z"/>
		<path fill="#F04E3E" d="M256.508,56.558c-0.971,0-1.799-0.342-2.482-1.025S253,54.021,253,53.05c0.971,0,1.799,0.348,2.482,1.043
			C256.166,54.776,256.508,55.599,256.508,56.558z"/>
		<path fill="#F04E3E" d="M256.508,60.066c-0.971,0-1.799-0.342-2.482-1.026c-0.684-0.684-1.025-1.511-1.025-2.482
			c0.971,0,1.799,0.349,2.482,1.044C256.166,58.285,256.508,59.106,256.508,60.066z"/>
		<path fill="#F04E3E" d="M256.508,63.574c-0.971,0-1.799-0.342-2.482-1.025S253,61.037,253,60.066c0.971,0,1.799,0.348,2.482,1.043
			C256.166,61.793,256.508,62.615,256.508,63.574z"/>
		<path fill="#F04E3E" d="M256.508,53.05c0-0.96,0.342-1.787,1.025-2.483c0.684-0.684,1.512-1.025,2.484-1.025
			c0,0.972-0.344,1.8-1.027,2.483S257.48,53.05,256.508,53.05z"/>
		<path fill="#F04E3E" d="M256.508,56.558c0-0.959,0.342-1.781,1.025-2.465c0.684-0.695,1.512-1.043,2.484-1.043
			c0,0.972-0.344,1.799-1.027,2.482S257.48,56.558,256.508,56.558z"/>
		<path fill="#F04E3E" d="M256.508,60.066c0-0.96,0.342-1.781,1.025-2.465c0.684-0.695,1.512-1.044,2.484-1.044
			c0,0.972-0.344,1.799-1.027,2.482C258.307,59.725,257.48,60.066,256.508,60.066z"/>
		<path fill="#F04E3E" d="M256.508,63.574c0-0.959,0.342-1.781,1.025-2.465c0.684-0.695,1.512-1.043,2.484-1.043
			c0,0.971-0.344,1.799-1.027,2.482S257.48,63.574,256.508,63.574z"/>
		<path fill="#F04E3E" d="M263.525,53.05c-0.973,0-1.799-0.342-2.482-1.025s-1.025-1.512-1.025-2.483
			c0.971,0,1.799,0.342,2.482,1.025C263.184,51.263,263.525,52.09,263.525,53.05z"/>
		<path fill="#F04E3E" d="M263.525,56.558c-0.973,0-1.799-0.342-2.482-1.025s-1.025-1.511-1.025-2.482
			c0.971,0,1.799,0.348,2.482,1.043C263.184,54.776,263.525,55.599,263.525,56.558z"/>
		<path fill="#F04E3E" d="M263.525,60.066c-0.973,0-1.799-0.342-2.482-1.026c-0.684-0.684-1.025-1.511-1.025-2.482
			c0.971,0,1.799,0.349,2.482,1.044C263.184,58.285,263.525,59.106,263.525,60.066z"/>
		<path fill="#F04E3E" d="M263.525,63.574c-0.973,0-1.799-0.342-2.482-1.025s-1.025-1.512-1.025-2.482
			c0.971,0,1.799,0.348,2.482,1.043C263.184,61.793,263.525,62.615,263.525,63.574z"/>
		<path fill="#F04E3E" d="M263.525,53.05c0-0.96,0.342-1.787,1.025-2.483c0.684-0.684,1.512-1.025,2.482-1.025
			c0,0.972-0.342,1.8-1.025,2.483S264.496,53.05,263.525,53.05z"/>
		<path fill="#F04E3E" d="M263.525,56.558c0-0.959,0.342-1.781,1.025-2.465c0.684-0.695,1.512-1.043,2.482-1.043
			c0,0.972-0.342,1.799-1.025,2.482S264.496,56.558,263.525,56.558z"/>
		<path fill="#F04E3E" d="M263.525,60.066c0-0.96,0.342-1.781,1.025-2.465c0.684-0.695,1.512-1.044,2.482-1.044
			c0,0.972-0.342,1.799-1.025,2.482C265.324,59.725,264.496,60.066,263.525,60.066z"/>
		<path fill="#0E9347" d="M235.459,24.983c0-0.972,0.342-1.799,1.025-2.482s1.512-1.025,2.482-1.025
			c0,0.972-0.342,1.799-1.025,2.482C237.246,24.642,236.418,24.983,235.459,24.983z"/>
		<path fill="#0E9347" d="M242.475,21.476c-0.971,0-1.799-0.342-2.482-1.025s-1.025-1.512-1.025-2.483
			c0.959,0,1.787,0.342,2.482,1.026C242.133,19.677,242.475,20.504,242.475,21.476z"/>
		<path fill="#0E9347" d="M242.475,24.983c-0.971,0-1.799-0.342-2.482-1.025s-1.025-1.511-1.025-2.482
			c0.959,0,1.787,0.342,2.482,1.025C242.133,23.185,242.475,24.012,242.475,24.983z"/>
		<path fill="#0E9347" d="M242.475,10.951c0-0.972,0.342-1.8,1.025-2.483c0.685-0.684,1.512-1.025,2.483-1.025
			c0,0.96-0.342,1.787-1.025,2.483C244.262,10.609,243.435,10.951,242.475,10.951z"/>
		<path fill="#0E9347" d="M242.475,17.967c0-0.971,0.342-1.799,1.025-2.482c0.685-0.684,1.512-1.025,2.483-1.025
			c0,0.972-0.342,1.799-1.025,2.482C244.262,17.625,243.435,17.967,242.475,17.967z"/>
		<path fill="#0E9347" d="M242.475,21.476c0-0.972,0.342-1.799,1.025-2.482c0.685-0.685,1.512-1.026,2.483-1.026
			c0,0.972-0.342,1.8-1.025,2.483C244.262,21.134,243.435,21.476,242.475,21.476z"/>
		<path fill="#0E9347" d="M242.475,24.983c0-0.972,0.342-1.799,1.025-2.482c0.685-0.684,1.512-1.025,2.483-1.025
			c0,0.972-0.342,1.799-1.025,2.482C244.262,24.642,243.435,24.983,242.475,24.983z"/>
		<path fill="#0E9347" d="M249.492,7.442c-0.973,0-1.8-0.342-2.483-1.025c-0.684-0.695-1.025-1.522-1.025-2.482
			c0.972,0,1.8,0.342,2.483,1.025S249.492,6.471,249.492,7.442z"/>
		<path fill="#0E9347" d="M249.492,10.951c-0.973,0-1.8-0.342-2.483-1.025c-0.684-0.696-1.025-1.523-1.025-2.483
			c0.972,0,1.8,0.342,2.483,1.025S249.492,9.979,249.492,10.951z"/>
		<path fill="#0E9347" d="M249.492,14.459c-0.973,0-1.8-0.342-2.483-1.025s-1.025-1.512-1.025-2.482c0.972,0,1.8,0.342,2.483,1.025
			S249.492,13.487,249.492,14.459z"/>
		<path fill="#0E9347" d="M249.492,17.967c-0.973,0-1.8-0.342-2.483-1.025s-1.025-1.511-1.025-2.482c0.972,0,1.8,0.342,2.483,1.025
			S249.492,16.996,249.492,17.967z"/>
		<path fill="#0E9347" d="M249.492,21.476c-0.973,0-1.8-0.342-2.483-1.025s-1.025-1.512-1.025-2.483c0.972,0,1.8,0.342,2.483,1.026
			C249.15,19.677,249.492,20.504,249.492,21.476z"/>
		<path fill="#0E9347" d="M249.492,24.983c-0.973,0-1.8-0.342-2.483-1.025s-1.025-1.511-1.025-2.482c0.972,0,1.8,0.342,2.483,1.025
			S249.492,24.012,249.492,24.983z"/>
		<path fill="#0E9347" d="M249.492,3.935c0-0.972,0.342-1.8,1.025-2.483s1.511-1.025,2.482-1.025c0,0.96-0.342,1.788-1.025,2.483
			C251.291,3.593,250.463,3.935,249.492,3.935z"/>
		<path fill="#0E9347" d="M249.492,7.442c0-0.972,0.342-1.799,1.025-2.482s1.511-1.025,2.482-1.025c0,0.96-0.342,1.787-1.025,2.482
			C251.291,7.101,250.463,7.442,249.492,7.442z"/>
		<path fill="#0E9347" d="M249.492,10.951c0-0.972,0.342-1.8,1.025-2.483s1.511-1.025,2.482-1.025c0,0.96-0.342,1.787-1.025,2.483
			C251.291,10.609,250.463,10.951,249.492,10.951z"/>
		<path fill="#0E9347" d="M249.492,14.459c0-0.972,0.342-1.799,1.025-2.482s1.511-1.025,2.482-1.025
			c0,0.971-0.342,1.799-1.025,2.482S250.463,14.459,249.492,14.459z"/>
		<path fill="#0E9347" d="M249.492,17.967c0-0.971,0.342-1.799,1.025-2.482s1.511-1.025,2.482-1.025
			c0,0.972-0.342,1.799-1.025,2.482S250.463,17.967,249.492,17.967z"/>
		<path fill="#0E9347" d="M249.492,21.476c0-0.972,0.342-1.799,1.025-2.482c0.684-0.685,1.511-1.026,2.482-1.026
			c0,0.972-0.342,1.8-1.025,2.483S250.463,21.476,249.492,21.476z"/>
		<path fill="#0E9347" d="M249.492,24.983c0-0.972,0.342-1.799,1.025-2.482s1.511-1.025,2.482-1.025
			c0,0.972-0.342,1.799-1.025,2.482S250.463,24.983,249.492,24.983z"/>
		<path fill="#0E9347" d="M256.508,3.935c-0.971,0-1.799-0.342-2.482-1.025C253.342,2.214,253,1.386,253,0.426
			c0.971,0,1.799,0.342,2.482,1.025S256.508,2.963,256.508,3.935z"/>
		<path fill="#0E9347" d="M256.508,7.442c-0.971,0-1.799-0.342-2.482-1.025C253.342,5.722,253,4.895,253,3.935
			c0.971,0,1.799,0.342,2.482,1.025S256.508,6.471,256.508,7.442z"/>
		<path fill="#0E9347" d="M256.508,10.951c-0.971,0-1.799-0.342-2.482-1.025C253.342,9.229,253,8.402,253,7.442
			c0.971,0,1.799,0.342,2.482,1.025S256.508,9.979,256.508,10.951z"/>
		<path fill="#0E9347" d="M256.508,14.459c-0.971,0-1.799-0.342-2.482-1.025S253,11.922,253,10.951c0.971,0,1.799,0.342,2.482,1.025
			S256.508,13.487,256.508,14.459z"/>
		<path fill="#0E9347" d="M256.508,17.967c-0.971,0-1.799-0.342-2.482-1.025S253,15.431,253,14.459c0.971,0,1.799,0.342,2.482,1.025
			S256.508,16.996,256.508,17.967z"/>
		<path fill="#0E9347" d="M256.508,21.476c-0.971,0-1.799-0.342-2.482-1.025S253,18.938,253,17.967c0.971,0,1.799,0.342,2.482,1.026
			C256.166,19.677,256.508,20.504,256.508,21.476z"/>
		<path fill="#0E9347" d="M256.508,24.983c-0.971,0-1.799-0.342-2.482-1.025S253,22.447,253,21.476c0.971,0,1.799,0.342,2.482,1.025
			S256.508,24.012,256.508,24.983z"/>
		<path fill="#0E9347" d="M256.508,7.442c0-0.972,0.342-1.799,1.025-2.482s1.512-1.025,2.484-1.025c0,0.96-0.344,1.787-1.027,2.482
			C258.307,7.101,257.48,7.442,256.508,7.442z"/>
		<path fill="#0E9347" d="M256.508,10.951c0-0.972,0.342-1.8,1.025-2.483s1.512-1.025,2.484-1.025c0,0.96-0.344,1.787-1.027,2.483
			C258.307,10.609,257.48,10.951,256.508,10.951z"/>
		<path fill="#0E9347" d="M256.508,14.459c0-0.972,0.342-1.799,1.025-2.482s1.512-1.025,2.484-1.025
			c0,0.971-0.344,1.799-1.027,2.482S257.48,14.459,256.508,14.459z"/>
		<path fill="#0E9347" d="M256.508,17.967c0-0.971,0.342-1.799,1.025-2.482s1.512-1.025,2.484-1.025
			c0,0.972-0.344,1.799-1.027,2.482S257.48,17.967,256.508,17.967z"/>
		<path fill="#0E9347" d="M256.508,21.476c0-0.972,0.342-1.799,1.025-2.482c0.684-0.685,1.512-1.026,2.484-1.026
			c0,0.972-0.344,1.8-1.027,2.483S257.48,21.476,256.508,21.476z"/>
		<path fill="#0E9347" d="M256.508,24.983c0-0.972,0.342-1.799,1.025-2.482s1.512-1.025,2.484-1.025
			c0,0.972-0.344,1.799-1.027,2.482S257.48,24.983,256.508,24.983z"/>
		<path fill="#0E9347" d="M263.525,10.951c-0.973,0-1.799-0.342-2.482-1.025c-0.684-0.696-1.025-1.523-1.025-2.483
			c0.971,0,1.799,0.342,2.482,1.025S263.525,9.979,263.525,10.951z"/>
		<path fill="#0E9347" d="M263.525,17.967c-0.973,0-1.799-0.342-2.482-1.025s-1.025-1.511-1.025-2.482
			c0.971,0,1.799,0.342,2.482,1.025S263.525,16.996,263.525,17.967z"/>
		<path fill="#0E9347" d="M263.525,21.476c-0.973,0-1.799-0.342-2.482-1.025s-1.025-1.512-1.025-2.483
			c0.971,0,1.799,0.342,2.482,1.026C263.184,19.677,263.525,20.504,263.525,21.476z"/>
		<path fill="#0E9347" d="M263.525,24.983c-0.973,0-1.799-0.342-2.482-1.025s-1.025-1.511-1.025-2.482
			c0.971,0,1.799,0.342,2.482,1.025S263.525,24.012,263.525,24.983z"/>
		<path fill="#0E9347" d="M263.525,21.476c0-0.972,0.342-1.799,1.025-2.482c0.684-0.685,1.512-1.026,2.482-1.026
			c0,0.972-0.342,1.8-1.025,2.483S264.496,21.476,263.525,21.476z"/>
		<path fill="#0E9347" d="M263.525,24.983c0-0.972,0.342-1.799,1.025-2.482s1.512-1.025,2.482-1.025
			c0,0.972-0.342,1.799-1.025,2.482S264.496,24.983,263.525,24.983z"/>
		<path fill="#0E9347" d="M270.541,24.983c-0.971,0-1.799-0.342-2.482-1.025s-1.025-1.511-1.025-2.482
			c0.971,0,1.799,0.342,2.482,1.025S270.541,24.012,270.541,24.983z"/>
	</g>
	<g>
		<g>
			<path fill="#8CC641" d="M452.972,46.033c-0.972,0-1.8-0.342-2.483-1.025s-1.025-1.512-1.025-2.483
				c0.96,0,1.781,0.342,2.465,1.026C452.623,44.246,452.972,45.073,452.972,46.033z M452.972,39.017
				c0-0.972,0.342-1.799,1.025-2.482s1.511-1.025,2.483-1.025c0,0.971-0.349,1.799-1.044,2.482
				C454.753,38.675,453.932,39.017,452.972,39.017z M452.972,42.524c0-0.971,0.342-1.799,1.025-2.482s1.511-1.025,2.483-1.025
				c0,0.972-0.349,1.799-1.044,2.482C454.753,42.183,453.932,42.524,452.972,42.524z M452.972,46.033
				c0-0.96,0.342-1.787,1.025-2.482c0.684-0.685,1.511-1.026,2.483-1.026c0,0.972-0.349,1.8-1.044,2.483
				C454.753,45.691,453.932,46.033,452.972,46.033z M459.988,35.509c-0.972,0-1.799-0.342-2.482-1.025
				c-0.684-0.685-1.025-1.512-1.025-2.483c0.959,0,1.78,0.342,2.465,1.025C459.641,33.709,459.988,34.537,459.988,35.509z
				 M459.988,39.017c-0.972,0-1.799-0.342-2.482-1.025s-1.025-1.512-1.025-2.482c0.959,0,1.78,0.342,2.465,1.025
				C459.641,37.218,459.988,38.045,459.988,39.017z M459.988,42.524c-0.972,0-1.799-0.342-2.482-1.025s-1.025-1.511-1.025-2.482
				c0.959,0,1.78,0.342,2.465,1.025C459.641,40.726,459.988,41.554,459.988,42.524z M459.988,46.033
				c-0.972,0-1.799-0.342-2.482-1.025s-1.025-1.512-1.025-2.483c0.959,0,1.78,0.342,2.465,1.026
				C459.641,44.246,459.988,45.073,459.988,46.033z M459.988,32c0-0.972,0.342-1.799,1.025-2.482s1.512-1.025,2.482-1.025
				c0,0.972-0.342,1.799-1.025,2.482C461.775,31.658,460.947,32,459.988,32z M459.988,35.509c0-0.972,0.342-1.8,1.025-2.483
				S462.525,32,463.496,32c0,0.972-0.342,1.799-1.025,2.483C461.775,35.167,460.947,35.509,459.988,35.509z M459.988,39.017
				c0-0.972,0.342-1.799,1.025-2.482s1.512-1.025,2.482-1.025c0,0.971-0.342,1.799-1.025,2.482
				C461.775,38.675,460.947,39.017,459.988,39.017z M459.988,42.524c0-0.971,0.342-1.799,1.025-2.482s1.512-1.025,2.482-1.025
				c0,0.972-0.342,1.799-1.025,2.482C461.775,42.183,460.947,42.524,459.988,42.524z M459.988,46.033
				c0-0.96,0.342-1.787,1.025-2.482c0.684-0.685,1.512-1.026,2.482-1.026c0,0.972-0.342,1.8-1.025,2.483
				C461.775,45.691,460.947,46.033,459.988,46.033z M467.004,32c-0.971,0-1.799-0.342-2.482-1.025s-1.025-1.511-1.025-2.482
				c0.959,0,1.787,0.342,2.482,1.025C466.662,30.201,467.004,31.028,467.004,32z M467.004,35.509c-0.971,0-1.799-0.342-2.482-1.025
				c-0.684-0.685-1.025-1.512-1.025-2.483c0.959,0,1.787,0.342,2.482,1.025C466.662,33.709,467.004,34.537,467.004,35.509z
				 M467.004,39.017c-0.971,0-1.799-0.342-2.482-1.025s-1.025-1.512-1.025-2.482c0.959,0,1.787,0.342,2.482,1.025
				C466.662,37.218,467.004,38.045,467.004,39.017z M467.004,42.524c-0.971,0-1.799-0.342-2.482-1.025s-1.025-1.511-1.025-2.482
				c0.959,0,1.787,0.342,2.482,1.025C466.662,40.726,467.004,41.554,467.004,42.524z M467.004,46.033
				c-0.971,0-1.799-0.342-2.482-1.025s-1.025-1.512-1.025-2.483c0.959,0,1.787,0.342,2.482,1.026
				C466.662,44.246,467.004,45.073,467.004,46.033z M467.004,32c0-0.972,0.342-1.799,1.025-2.482
				c0.685-0.684,1.512-1.025,2.483-1.025c0,0.972-0.342,1.799-1.025,2.482C468.791,31.658,467.964,32,467.004,32z M467.004,35.509
				c0-0.972,0.342-1.8,1.025-2.483c0.685-0.684,1.512-1.025,2.483-1.025c0,0.972-0.342,1.799-1.025,2.483
				C468.791,35.167,467.964,35.509,467.004,35.509z M467.004,39.017c0-0.972,0.342-1.799,1.025-2.482
				c0.685-0.684,1.512-1.025,2.483-1.025c0,0.971-0.342,1.799-1.025,2.482C468.791,38.675,467.964,39.017,467.004,39.017z
				 M467.004,42.524c0-0.971,0.342-1.799,1.025-2.482c0.685-0.684,1.512-1.025,2.483-1.025c0,0.972-0.342,1.799-1.025,2.482
				C468.791,42.183,467.964,42.524,467.004,42.524z M467.004,46.033c0-0.96,0.342-1.787,1.025-2.482
				c0.685-0.685,1.512-1.026,2.483-1.026c0,0.972-0.342,1.8-1.025,2.483C468.791,45.691,467.964,46.033,467.004,46.033z
				 M474.021,28.492c-0.973,0-1.8-0.342-2.483-1.025s-1.025-1.512-1.025-2.483c0.972,0,1.8,0.342,2.483,1.025
				S474.021,27.521,474.021,28.492z M474.021,32c-0.973,0-1.8-0.342-2.483-1.025s-1.025-1.511-1.025-2.482
				c0.972,0,1.8,0.342,2.483,1.025S474.021,31.028,474.021,32z M474.021,35.509c-0.973,0-1.8-0.342-2.483-1.025
				c-0.684-0.685-1.025-1.512-1.025-2.483c0.972,0,1.8,0.342,2.483,1.025S474.021,34.537,474.021,35.509z M474.021,39.017
				c-0.973,0-1.8-0.342-2.483-1.025s-1.025-1.512-1.025-2.482c0.972,0,1.8,0.342,2.483,1.025S474.021,38.045,474.021,39.017z
				 M474.021,42.524c-0.973,0-1.8-0.342-2.483-1.025s-1.025-1.511-1.025-2.482c0.972,0,1.8,0.342,2.483,1.025
				S474.021,41.554,474.021,42.524z M474.021,46.033c-0.973,0-1.8-0.342-2.483-1.025s-1.025-1.512-1.025-2.483
				c0.972,0,1.8,0.342,2.483,1.026C473.68,44.246,474.021,45.073,474.021,46.033z M474.021,49.541c-0.973,0-1.8-0.342-2.483-1.025
				s-1.025-1.511-1.025-2.482c0.972,0,1.8,0.342,2.483,1.025C473.68,47.754,474.021,48.582,474.021,49.541z M474.021,28.492
				c0-0.972,0.342-1.8,1.025-2.483s1.511-1.025,2.482-1.025c0,0.972-0.342,1.8-1.025,2.483S474.992,28.492,474.021,28.492z
				 M474.021,32c0-0.972,0.342-1.799,1.025-2.482s1.511-1.025,2.482-1.025c0,0.972-0.342,1.799-1.025,2.482S474.992,32,474.021,32z
				 M474.021,35.509c0-0.972,0.342-1.8,1.025-2.483S476.558,32,477.529,32c0,0.972-0.342,1.799-1.025,2.483
				C475.82,35.167,474.992,35.509,474.021,35.509z M474.021,39.017c0-0.972,0.342-1.799,1.025-2.482s1.511-1.025,2.482-1.025
				c0,0.971-0.342,1.799-1.025,2.482S474.992,39.017,474.021,39.017z M474.021,42.524c0-0.971,0.342-1.799,1.025-2.482
				s1.511-1.025,2.482-1.025c0,0.972-0.342,1.799-1.025,2.482S474.992,42.524,474.021,42.524z M474.021,46.033
				c0-0.96,0.342-1.787,1.025-2.482c0.684-0.685,1.511-1.026,2.482-1.026c0,0.972-0.342,1.8-1.025,2.483
				S474.992,46.033,474.021,46.033z M474.021,49.541c0-0.959,0.342-1.787,1.025-2.482c0.684-0.684,1.511-1.025,2.482-1.025
				c0,0.972-0.342,1.799-1.025,2.482S474.992,49.541,474.021,49.541z M481.037,28.492c-0.971,0-1.799-0.342-2.482-1.025
				s-1.025-1.512-1.025-2.483c0.971,0,1.799,0.342,2.482,1.025S481.037,27.521,481.037,28.492z M481.037,32
				c-0.971,0-1.799-0.342-2.482-1.025s-1.025-1.511-1.025-2.482c0.971,0,1.799,0.342,2.482,1.025S481.037,31.028,481.037,32z
				 M481.037,35.509c-0.971,0-1.799-0.342-2.482-1.025c-0.684-0.685-1.025-1.512-1.025-2.483c0.971,0,1.799,0.342,2.482,1.025
				S481.037,34.537,481.037,35.509z M481.037,39.017c-0.971,0-1.799-0.342-2.482-1.025s-1.025-1.512-1.025-2.482
				c0.971,0,1.799,0.342,2.482,1.025S481.037,38.045,481.037,39.017z M481.037,42.524c-0.971,0-1.799-0.342-2.482-1.025
				s-1.025-1.511-1.025-2.482c0.971,0,1.799,0.342,2.482,1.025S481.037,41.554,481.037,42.524z M481.037,46.033
				c-0.971,0-1.799-0.342-2.482-1.025s-1.025-1.512-1.025-2.483c0.971,0,1.799,0.342,2.482,1.026
				C480.695,44.246,481.037,45.073,481.037,46.033z M481.037,49.541c-0.971,0-1.799-0.342-2.482-1.025s-1.025-1.511-1.025-2.482
				c0.971,0,1.799,0.342,2.482,1.025C480.695,47.754,481.037,48.582,481.037,49.541z M481.037,28.492c0-0.972,0.342-1.8,1.025-2.483
				s1.512-1.025,2.484-1.025c0,0.972-0.344,1.8-1.027,2.483S482.01,28.492,481.037,28.492z M481.037,32
				c0-0.972,0.342-1.799,1.025-2.482s1.512-1.025,2.484-1.025c0,0.972-0.344,1.799-1.027,2.482S482.01,32,481.037,32z
				 M481.037,35.509c0-0.972,0.342-1.8,1.025-2.483S483.574,32,484.547,32c0,0.972-0.344,1.799-1.027,2.483
				C482.836,35.167,482.01,35.509,481.037,35.509z M481.037,39.017c0-0.972,0.342-1.799,1.025-2.482s1.512-1.025,2.484-1.025
				c0,0.971-0.344,1.799-1.027,2.482S482.01,39.017,481.037,39.017z M481.037,42.524c0-0.971,0.342-1.799,1.025-2.482
				s1.512-1.025,2.484-1.025c0,0.972-0.344,1.799-1.027,2.482S482.01,42.524,481.037,42.524z M481.037,46.033
				c0-0.96,0.342-1.787,1.025-2.482c0.684-0.685,1.512-1.026,2.484-1.026c0,0.972-0.344,1.8-1.027,2.483
				S482.01,46.033,481.037,46.033z M481.037,49.541c0-0.959,0.342-1.787,1.025-2.482c0.684-0.684,1.512-1.025,2.484-1.025
				c0,0.972-0.344,1.799-1.027,2.482S482.01,49.541,481.037,49.541z M488.055,32c-0.973,0-1.799-0.342-2.482-1.025
				s-1.025-1.511-1.025-2.482c0.971,0,1.799,0.342,2.482,1.025S488.055,31.028,488.055,32z M488.055,35.509
				c-0.973,0-1.799-0.342-2.482-1.025c-0.684-0.685-1.025-1.512-1.025-2.483c0.971,0,1.799,0.342,2.482,1.025
				S488.055,34.537,488.055,35.509z M488.055,39.017c-0.973,0-1.799-0.342-2.482-1.025s-1.025-1.512-1.025-2.482
				c0.971,0,1.799,0.342,2.482,1.025S488.055,38.045,488.055,39.017z M488.055,42.524c-0.973,0-1.799-0.342-2.482-1.025
				s-1.025-1.511-1.025-2.482c0.971,0,1.799,0.342,2.482,1.025S488.055,41.554,488.055,42.524z M488.055,46.033
				c-0.973,0-1.799-0.342-2.482-1.025s-1.025-1.512-1.025-2.483c0.971,0,1.799,0.342,2.482,1.026
				C487.713,44.246,488.055,45.073,488.055,46.033z M488.055,32c0-0.972,0.342-1.799,1.025-2.482s1.512-1.025,2.482-1.025
				c0,0.972-0.342,1.799-1.025,2.482S489.025,32,488.055,32z M488.055,35.509c0-0.972,0.342-1.8,1.025-2.483S490.592,32,491.563,32
				c0,0.972-0.342,1.799-1.025,2.483C489.854,35.167,489.025,35.509,488.055,35.509z M488.055,39.017
				c0-0.972,0.342-1.799,1.025-2.482s1.512-1.025,2.482-1.025c0,0.971-0.342,1.799-1.025,2.482S489.025,39.017,488.055,39.017z
				 M488.055,42.524c0-0.971,0.342-1.799,1.025-2.482s1.512-1.025,2.482-1.025c0,0.972-0.342,1.799-1.025,2.482
				S489.025,42.524,488.055,42.524z M488.055,46.033c0-0.96,0.342-1.787,1.025-2.482c0.684-0.685,1.512-1.026,2.482-1.026
				c0,0.972-0.342,1.8-1.025,2.483S489.025,46.033,488.055,46.033z M495.07,32c-0.971,0-1.799-0.342-2.482-1.025
				s-1.025-1.511-1.025-2.482c0.971,0,1.799,0.342,2.482,1.025S495.07,31.028,495.07,32z M495.07,35.509
				c-0.971,0-1.799-0.342-2.482-1.025c-0.684-0.685-1.025-1.512-1.025-2.483c0.971,0,1.799,0.342,2.482,1.025
				S495.07,34.537,495.07,35.509z M495.07,39.017c-0.971,0-1.799-0.342-2.482-1.025s-1.025-1.512-1.025-2.482
				c0.971,0,1.799,0.342,2.482,1.025S495.07,38.045,495.07,39.017z M495.07,42.524c-0.971,0-1.799-0.342-2.482-1.025
				s-1.025-1.511-1.025-2.482c0.971,0,1.799,0.342,2.482,1.025S495.07,41.554,495.07,42.524z M495.07,46.033
				c-0.971,0-1.799-0.342-2.482-1.025s-1.025-1.512-1.025-2.483c0.971,0,1.799,0.342,2.482,1.026
				C494.729,44.246,495.07,45.073,495.07,46.033z M495.07,35.509c0-0.972,0.342-1.8,1.025-2.483S497.607,32,498.578,32
				c0,0.972-0.342,1.799-1.025,2.483C496.869,35.167,496.043,35.509,495.07,35.509z M495.07,39.017c0-0.972,0.342-1.799,1.025-2.482
				s1.512-1.025,2.482-1.025c0,0.971-0.342,1.799-1.025,2.482S496.043,39.017,495.07,39.017z M495.07,42.524
				c0-0.971,0.342-1.799,1.025-2.482s1.512-1.025,2.482-1.025c0,0.972-0.342,1.799-1.025,2.482S496.043,42.524,495.07,42.524z
				 M495.07,46.033c0-0.96,0.342-1.787,1.025-2.482c0.684-0.685,1.512-1.026,2.482-1.026c0,0.972-0.342,1.8-1.025,2.483
				S496.043,46.033,495.07,46.033z M502.086,39.017c-0.971,0-1.799-0.342-2.482-1.025s-1.025-1.512-1.025-2.482
				c0.973,0,1.799,0.342,2.482,1.025S502.086,38.045,502.086,39.017z M502.086,42.524c-0.971,0-1.799-0.342-2.482-1.025
				s-1.025-1.511-1.025-2.482c0.973,0,1.799,0.342,2.482,1.025S502.086,41.554,502.086,42.524z M502.086,46.033
				c-0.971,0-1.799-0.342-2.482-1.025s-1.025-1.512-1.025-2.483c0.973,0,1.799,0.342,2.482,1.026
				C501.744,44.246,502.086,45.073,502.086,46.033z M502.086,46.033c0-0.96,0.342-1.787,1.025-2.482
				c0.697-0.685,1.523-1.026,2.484-1.026c0,0.972-0.342,1.8-1.025,2.483S503.059,46.033,502.086,46.033z"/>
		</g>
		<path fill="#F04E3E" d="M467.004,53.05c-0.971,0-1.799-0.342-2.482-1.025s-1.025-1.512-1.025-2.483
			c0.959,0,1.787,0.342,2.482,1.025C466.662,51.263,467.004,52.09,467.004,53.05z"/>
		<path fill="#F04E3E" d="M467.004,56.558c-0.971,0-1.799-0.342-2.482-1.025s-1.025-1.511-1.025-2.482
			c0.959,0,1.787,0.348,2.482,1.043C466.662,54.776,467.004,55.599,467.004,56.558z"/>
		<path fill="#F04E3E" d="M467.004,60.066c-0.971,0-1.799-0.342-2.482-1.026c-0.684-0.684-1.025-1.511-1.025-2.482
			c0.959,0,1.787,0.349,2.482,1.044C466.662,58.285,467.004,59.106,467.004,60.066z"/>
		<path fill="#F04E3E" d="M467.004,53.05c0-0.96,0.342-1.787,1.025-2.483c0.685-0.684,1.512-1.025,2.483-1.025
			c0,0.972-0.342,1.8-1.025,2.483C468.791,52.708,467.964,53.05,467.004,53.05z"/>
		<path fill="#F04E3E" d="M467.004,56.558c0-0.959,0.342-1.781,1.025-2.465c0.685-0.695,1.512-1.043,2.483-1.043
			c0,0.972-0.342,1.799-1.025,2.482C468.791,56.216,467.964,56.558,467.004,56.558z"/>
		<path fill="#F04E3E" d="M467.004,60.066c0-0.96,0.342-1.781,1.025-2.465c0.685-0.695,1.512-1.044,2.483-1.044
			c0,0.972-0.342,1.799-1.025,2.482C468.791,59.725,467.964,60.066,467.004,60.066z"/>
		<path fill="#F04E3E" d="M467.004,63.574c0-0.959,0.342-1.781,1.025-2.465c0.685-0.695,1.512-1.043,2.483-1.043
			c0,0.971-0.342,1.799-1.025,2.482C468.791,63.232,467.964,63.574,467.004,63.574z"/>
		<path fill="#F04E3E" d="M474.021,53.05c-0.973,0-1.8-0.342-2.483-1.025s-1.025-1.512-1.025-2.483c0.972,0,1.8,0.342,2.483,1.025
			C473.68,51.263,474.021,52.09,474.021,53.05z"/>
		<path fill="#F04E3E" d="M474.021,56.558c-0.973,0-1.8-0.342-2.483-1.025s-1.025-1.511-1.025-2.482c0.972,0,1.8,0.348,2.483,1.043
			C473.68,54.776,474.021,55.599,474.021,56.558z"/>
		<path fill="#F04E3E" d="M474.021,60.066c-0.973,0-1.8-0.342-2.483-1.026c-0.684-0.684-1.025-1.511-1.025-2.482
			c0.972,0,1.8,0.349,2.483,1.044C473.68,58.285,474.021,59.106,474.021,60.066z"/>
		<path fill="#F04E3E" d="M474.021,63.574c-0.973,0-1.8-0.342-2.483-1.025s-1.025-1.512-1.025-2.482c0.972,0,1.8,0.348,2.483,1.043
			C473.68,61.793,474.021,62.615,474.021,63.574z"/>
		<path fill="#F04E3E" d="M474.021,53.05c0-0.96,0.342-1.787,1.025-2.483c0.684-0.684,1.511-1.025,2.482-1.025
			c0,0.972-0.342,1.8-1.025,2.483S474.992,53.05,474.021,53.05z"/>
		<path fill="#F04E3E" d="M474.021,56.558c0-0.959,0.342-1.781,1.025-2.465c0.684-0.695,1.511-1.043,2.482-1.043
			c0,0.972-0.342,1.799-1.025,2.482S474.992,56.558,474.021,56.558z"/>
		<path fill="#F04E3E" d="M474.021,60.066c0-0.96,0.342-1.781,1.025-2.465c0.684-0.695,1.511-1.044,2.482-1.044
			c0,0.972-0.342,1.799-1.025,2.482C475.82,59.725,474.992,60.066,474.021,60.066z"/>
		<path fill="#F04E3E" d="M474.021,63.574c0-0.959,0.342-1.781,1.025-2.465c0.684-0.695,1.511-1.043,2.482-1.043
			c0,0.971-0.342,1.799-1.025,2.482S474.992,63.574,474.021,63.574z"/>
		<path fill="#F04E3E" d="M481.037,53.05c-0.971,0-1.799-0.342-2.482-1.025s-1.025-1.512-1.025-2.483
			c0.971,0,1.799,0.342,2.482,1.025C480.695,51.263,481.037,52.09,481.037,53.05z"/>
		<path fill="#F04E3E" d="M481.037,56.558c-0.971,0-1.799-0.342-2.482-1.025s-1.025-1.511-1.025-2.482
			c0.971,0,1.799,0.348,2.482,1.043C480.695,54.776,481.037,55.599,481.037,56.558z"/>
		<path fill="#F04E3E" d="M481.037,60.066c-0.971,0-1.799-0.342-2.482-1.026c-0.684-0.684-1.025-1.511-1.025-2.482
			c0.971,0,1.799,0.349,2.482,1.044C480.695,58.285,481.037,59.106,481.037,60.066z"/>
		<path fill="#F04E3E" d="M481.037,63.574c-0.971,0-1.799-0.342-2.482-1.025s-1.025-1.512-1.025-2.482
			c0.971,0,1.799,0.348,2.482,1.043C480.695,61.793,481.037,62.615,481.037,63.574z"/>
		<path fill="#F04E3E" d="M481.037,53.05c0-0.96,0.342-1.787,1.025-2.483c0.684-0.684,1.512-1.025,2.484-1.025
			c0,0.972-0.344,1.8-1.027,2.483S482.01,53.05,481.037,53.05z"/>
		<path fill="#F04E3E" d="M481.037,56.558c0-0.959,0.342-1.781,1.025-2.465c0.684-0.695,1.512-1.043,2.484-1.043
			c0,0.972-0.344,1.799-1.027,2.482S482.01,56.558,481.037,56.558z"/>
		<path fill="#F04E3E" d="M481.037,60.066c0-0.96,0.342-1.781,1.025-2.465c0.684-0.695,1.512-1.044,2.484-1.044
			c0,0.972-0.344,1.799-1.027,2.482C482.836,59.725,482.01,60.066,481.037,60.066z"/>
		<path fill="#F04E3E" d="M481.037,63.574c0-0.959,0.342-1.781,1.025-2.465c0.684-0.695,1.512-1.043,2.484-1.043
			c0,0.971-0.344,1.799-1.027,2.482S482.01,63.574,481.037,63.574z"/>
		<path fill="#F04E3E" d="M488.055,53.05c-0.973,0-1.799-0.342-2.482-1.025s-1.025-1.512-1.025-2.483
			c0.971,0,1.799,0.342,2.482,1.025C487.713,51.263,488.055,52.09,488.055,53.05z"/>
		<path fill="#F04E3E" d="M488.055,56.558c-0.973,0-1.799-0.342-2.482-1.025s-1.025-1.511-1.025-2.482
			c0.971,0,1.799,0.348,2.482,1.043C487.713,54.776,488.055,55.599,488.055,56.558z"/>
		<path fill="#F04E3E" d="M488.055,60.066c-0.973,0-1.799-0.342-2.482-1.026c-0.684-0.684-1.025-1.511-1.025-2.482
			c0.971,0,1.799,0.349,2.482,1.044C487.713,58.285,488.055,59.106,488.055,60.066z"/>
		<path fill="#F04E3E" d="M488.055,63.574c-0.973,0-1.799-0.342-2.482-1.025s-1.025-1.512-1.025-2.482
			c0.971,0,1.799,0.348,2.482,1.043C487.713,61.793,488.055,62.615,488.055,63.574z"/>
		<path fill="#F04E3E" d="M488.055,53.05c0-0.96,0.342-1.787,1.025-2.483c0.684-0.684,1.512-1.025,2.482-1.025
			c0,0.972-0.342,1.8-1.025,2.483S489.025,53.05,488.055,53.05z"/>
		<path fill="#F04E3E" d="M488.055,56.558c0-0.959,0.342-1.781,1.025-2.465c0.684-0.695,1.512-1.043,2.482-1.043
			c0,0.972-0.342,1.799-1.025,2.482S489.025,56.558,488.055,56.558z"/>
		<path fill="#F04E3E" d="M488.055,60.066c0-0.96,0.342-1.781,1.025-2.465c0.684-0.695,1.512-1.044,2.482-1.044
			c0,0.972-0.342,1.799-1.025,2.482C489.854,59.725,489.025,60.066,488.055,60.066z"/>
		<path fill="#8CC641" d="M459.988,24.983c0-0.972,0.342-1.799,1.025-2.482s1.512-1.025,2.482-1.025
			c0,0.972-0.342,1.799-1.025,2.482C461.775,24.642,460.947,24.983,459.988,24.983z"/>
		<path fill="#8CC641" d="M467.004,21.476c-0.971,0-1.799-0.342-2.482-1.025s-1.025-1.512-1.025-2.483
			c0.959,0,1.787,0.342,2.482,1.026C466.662,19.677,467.004,20.504,467.004,21.476z"/>
		<path fill="#8CC641" d="M467.004,24.983c-0.971,0-1.799-0.342-2.482-1.025s-1.025-1.511-1.025-2.482
			c0.959,0,1.787,0.342,2.482,1.025C466.662,23.185,467.004,24.012,467.004,24.983z"/>
		<path fill="#8CC641" d="M467.004,10.951c0-0.972,0.342-1.8,1.025-2.483c0.685-0.684,1.512-1.025,2.483-1.025
			c0,0.96-0.342,1.787-1.025,2.483C468.791,10.609,467.964,10.951,467.004,10.951z"/>
		<path fill="#8CC641" d="M467.004,17.967c0-0.971,0.342-1.799,1.025-2.482c0.685-0.684,1.512-1.025,2.483-1.025
			c0,0.972-0.342,1.799-1.025,2.482C468.791,17.625,467.964,17.967,467.004,17.967z"/>
		<path fill="#8CC641" d="M467.004,21.476c0-0.972,0.342-1.799,1.025-2.482c0.685-0.685,1.512-1.026,2.483-1.026
			c0,0.972-0.342,1.8-1.025,2.483C468.791,21.134,467.964,21.476,467.004,21.476z"/>
		<path fill="#8CC641" d="M467.004,24.983c0-0.972,0.342-1.799,1.025-2.482c0.685-0.684,1.512-1.025,2.483-1.025
			c0,0.972-0.342,1.799-1.025,2.482C468.791,24.642,467.964,24.983,467.004,24.983z"/>
		<path fill="#8CC641" d="M474.021,7.442c-0.973,0-1.8-0.342-2.483-1.025c-0.684-0.695-1.025-1.522-1.025-2.482
			c0.972,0,1.8,0.342,2.483,1.025S474.021,6.471,474.021,7.442z"/>
		<path fill="#8CC641" d="M474.021,10.951c-0.973,0-1.8-0.342-2.483-1.025c-0.684-0.696-1.025-1.523-1.025-2.483
			c0.972,0,1.8,0.342,2.483,1.025S474.021,9.979,474.021,10.951z"/>
		<path fill="#8CC641" d="M474.021,14.459c-0.973,0-1.8-0.342-2.483-1.025s-1.025-1.512-1.025-2.482c0.972,0,1.8,0.342,2.483,1.025
			S474.021,13.487,474.021,14.459z"/>
		<path fill="#8CC641" d="M474.021,17.967c-0.973,0-1.8-0.342-2.483-1.025s-1.025-1.511-1.025-2.482c0.972,0,1.8,0.342,2.483,1.025
			S474.021,16.996,474.021,17.967z"/>
		<path fill="#8CC641" d="M474.021,21.476c-0.973,0-1.8-0.342-2.483-1.025s-1.025-1.512-1.025-2.483c0.972,0,1.8,0.342,2.483,1.026
			C473.68,19.677,474.021,20.504,474.021,21.476z"/>
		<path fill="#8CC641" d="M474.021,24.983c-0.973,0-1.8-0.342-2.483-1.025s-1.025-1.511-1.025-2.482c0.972,0,1.8,0.342,2.483,1.025
			S474.021,24.012,474.021,24.983z"/>
		<path fill="#8CC641" d="M474.021,3.935c0-0.972,0.342-1.8,1.025-2.483s1.511-1.025,2.482-1.025c0,0.96-0.342,1.788-1.025,2.483
			C475.82,3.593,474.992,3.935,474.021,3.935z"/>
		<path fill="#8CC641" d="M474.021,7.442c0-0.972,0.342-1.799,1.025-2.482s1.511-1.025,2.482-1.025c0,0.96-0.342,1.787-1.025,2.482
			C475.82,7.101,474.992,7.442,474.021,7.442z"/>
		<path fill="#8CC641" d="M474.021,10.951c0-0.972,0.342-1.8,1.025-2.483s1.511-1.025,2.482-1.025c0,0.96-0.342,1.787-1.025,2.483
			C475.82,10.609,474.992,10.951,474.021,10.951z"/>
		<path fill="#8CC641" d="M474.021,14.459c0-0.972,0.342-1.799,1.025-2.482s1.511-1.025,2.482-1.025
			c0,0.971-0.342,1.799-1.025,2.482S474.992,14.459,474.021,14.459z"/>
		<path fill="#8CC641" d="M474.021,17.967c0-0.971,0.342-1.799,1.025-2.482s1.511-1.025,2.482-1.025
			c0,0.972-0.342,1.799-1.025,2.482S474.992,17.967,474.021,17.967z"/>
		<path fill="#8CC641" d="M474.021,21.476c0-0.972,0.342-1.799,1.025-2.482c0.684-0.685,1.511-1.026,2.482-1.026
			c0,0.972-0.342,1.8-1.025,2.483S474.992,21.476,474.021,21.476z"/>
		<path fill="#8CC641" d="M474.021,24.983c0-0.972,0.342-1.799,1.025-2.482s1.511-1.025,2.482-1.025
			c0,0.972-0.342,1.799-1.025,2.482S474.992,24.983,474.021,24.983z"/>
		<path fill="#8CC641" d="M481.037,3.935c-0.971,0-1.799-0.342-2.482-1.025c-0.684-0.695-1.025-1.523-1.025-2.483
			c0.971,0,1.799,0.342,2.482,1.025S481.037,2.963,481.037,3.935z"/>
		<path fill="#8CC641" d="M481.037,7.442c-0.971,0-1.799-0.342-2.482-1.025c-0.684-0.695-1.025-1.522-1.025-2.482
			c0.971,0,1.799,0.342,2.482,1.025S481.037,6.471,481.037,7.442z"/>
		<path fill="#8CC641" d="M481.037,10.951c-0.971,0-1.799-0.342-2.482-1.025c-0.684-0.696-1.025-1.523-1.025-2.483
			c0.971,0,1.799,0.342,2.482,1.025S481.037,9.979,481.037,10.951z"/>
		<path fill="#8CC641" d="M481.037,14.459c-0.971,0-1.799-0.342-2.482-1.025s-1.025-1.512-1.025-2.482
			c0.971,0,1.799,0.342,2.482,1.025S481.037,13.487,481.037,14.459z"/>
		<path fill="#8CC641" d="M481.037,17.967c-0.971,0-1.799-0.342-2.482-1.025s-1.025-1.511-1.025-2.482
			c0.971,0,1.799,0.342,2.482,1.025S481.037,16.996,481.037,17.967z"/>
		<path fill="#8CC641" d="M481.037,21.476c-0.971,0-1.799-0.342-2.482-1.025s-1.025-1.512-1.025-2.483
			c0.971,0,1.799,0.342,2.482,1.026C480.695,19.677,481.037,20.504,481.037,21.476z"/>
		<path fill="#8CC641" d="M481.037,24.983c-0.971,0-1.799-0.342-2.482-1.025s-1.025-1.511-1.025-2.482
			c0.971,0,1.799,0.342,2.482,1.025S481.037,24.012,481.037,24.983z"/>
		<path fill="#8CC641" d="M481.037,7.442c0-0.972,0.342-1.799,1.025-2.482s1.512-1.025,2.484-1.025c0,0.96-0.344,1.787-1.027,2.482
			C482.836,7.101,482.01,7.442,481.037,7.442z"/>
		<path fill="#8CC641" d="M481.037,10.951c0-0.972,0.342-1.8,1.025-2.483s1.512-1.025,2.484-1.025c0,0.96-0.344,1.787-1.027,2.483
			C482.836,10.609,482.01,10.951,481.037,10.951z"/>
		<path fill="#8CC641" d="M481.037,14.459c0-0.972,0.342-1.799,1.025-2.482s1.512-1.025,2.484-1.025
			c0,0.971-0.344,1.799-1.027,2.482S482.01,14.459,481.037,14.459z"/>
		<path fill="#8CC641" d="M481.037,17.967c0-0.971,0.342-1.799,1.025-2.482s1.512-1.025,2.484-1.025
			c0,0.972-0.344,1.799-1.027,2.482S482.01,17.967,481.037,17.967z"/>
		<path fill="#8CC641" d="M481.037,21.476c0-0.972,0.342-1.799,1.025-2.482c0.684-0.685,1.512-1.026,2.484-1.026
			c0,0.972-0.344,1.8-1.027,2.483S482.01,21.476,481.037,21.476z"/>
		<path fill="#8CC641" d="M481.037,24.983c0-0.972,0.342-1.799,1.025-2.482s1.512-1.025,2.484-1.025
			c0,0.972-0.344,1.799-1.027,2.482S482.01,24.983,481.037,24.983z"/>
		<path fill="#8CC641" d="M488.055,10.951c-0.973,0-1.799-0.342-2.482-1.025c-0.684-0.696-1.025-1.523-1.025-2.483
			c0.971,0,1.799,0.342,2.482,1.025S488.055,9.979,488.055,10.951z"/>
		<path fill="#8CC641" d="M488.055,17.967c-0.973,0-1.799-0.342-2.482-1.025s-1.025-1.511-1.025-2.482
			c0.971,0,1.799,0.342,2.482,1.025S488.055,16.996,488.055,17.967z"/>
		<path fill="#8CC641" d="M488.055,21.476c-0.973,0-1.799-0.342-2.482-1.025s-1.025-1.512-1.025-2.483
			c0.971,0,1.799,0.342,2.482,1.026C487.713,19.677,488.055,20.504,488.055,21.476z"/>
		<path fill="#8CC641" d="M488.055,24.983c-0.973,0-1.799-0.342-2.482-1.025s-1.025-1.511-1.025-2.482
			c0.971,0,1.799,0.342,2.482,1.025S488.055,24.012,488.055,24.983z"/>
		<path fill="#8CC641" d="M488.055,21.476c0-0.972,0.342-1.799,1.025-2.482c0.684-0.685,1.512-1.026,2.482-1.026
			c0,0.972-0.342,1.8-1.025,2.483S489.025,21.476,488.055,21.476z"/>
		<path fill="#8CC641" d="M488.055,24.983c0-0.972,0.342-1.799,1.025-2.482s1.512-1.025,2.482-1.025
			c0,0.972-0.342,1.799-1.025,2.482S489.025,24.983,488.055,24.983z"/>
		<path fill="#8CC641" d="M495.07,24.983c-0.971,0-1.799-0.342-2.482-1.025s-1.025-1.511-1.025-2.482
			c0.971,0,1.799,0.342,2.482,1.025S495.07,24.012,495.07,24.983z"/>
	</g>
</g>
</svg>
